<?xml version="1.0" encoding="UTF-8" standalone="no"?>
<!-- Created with Inkscape (http://www.inkscape.org/) -->

<svg
   version="1.1"
   id="svg2"
   width="800"
   height="560"
   viewBox="0 0 800 560"
   sodipodi:docname="cake.eps"
   xmlns:inkscape="http://www.inkscape.org/namespaces/inkscape"
   xmlns:sodipodi="http://sodipodi.sourceforge.net/DTD/sodipodi-0.dtd"
   xmlns="http://www.w3.org/2000/svg"
   xmlns:svg="http://www.w3.org/2000/svg">
  <defs
     id="defs6">
    <clipPath
       clipPathUnits="userSpaceOnUse"
       id="clipPath18">
      <path
         d="m 1.5,1.05078 h 5997 V 4198.9508 H 1.5 Z"
         id="path16" />
    </clipPath>
  </defs>
  <sodipodi:namedview
     id="namedview4"
     pagecolor="#ffffff"
     bordercolor="#000000"
     borderopacity="0.25"
     inkscape:showpageshadow="2"
     inkscape:pageopacity="0.0"
     inkscape:pagecheckerboard="0"
     inkscape:deskcolor="#d1d1d1" />
  <g
     id="g8"
     inkscape:groupmode="layer"
     inkscape:label="ink_ext_XXXXXX"
     transform="matrix(1.3333333,0,0,-1.3333333,0,560)">
    <g
       id="g10"
       transform="scale(0.1)">
      <g
         id="g12">
        <g
           id="g14"
           clip-path="url(#clipPath18)">
          <path
             d="m 1.5,-1798.05 h 5997 v 5997 H 1.5 Z"
             style="fill:#69d9ff;fill-opacity:1;fill-rule:evenodd;stroke:none"
             id="path20" />
          <path
             d="m 1.5,-1798.05 h 5997 v 5997 H 1.5 v -5997 L 3000,1200.45"
             style="fill:none;stroke:#69d9ff;stroke-width:5.997;stroke-linecap:round;stroke-linejoin:round;stroke-miterlimit:10;stroke-dasharray:none;stroke-opacity:1"
             id="path22" />
          <path
             d="m 1200.9,1200.45 h 3598.2 v 59.9727 H 1200.9 Z"
             style="fill:#ffffff;fill-opacity:1;fill-rule:evenodd;stroke:none"
             id="path24" />
          <path
             d="m 1200.9,1200.45 h 3598.2 v 59.97 H 1200.9 v -59.97"
             style="fill:none;stroke:#ffffff;stroke-width:5.997;stroke-linecap:round;stroke-linejoin:round;stroke-miterlimit:10;stroke-dasharray:none;stroke-opacity:1"
             id="path26" />
          <path
             d="m 1380.81,1260.42 h 3238.38 v 179.906 H 1380.81 Z"
             style="fill:#e30b5d;fill-opacity:1;fill-rule:evenodd;stroke:none"
             id="path28" />
          <path
             d="m 1380.81,1260.42 h 3238.38 v 179.91 H 1380.81 v -179.91"
             style="fill:none;stroke:#e30b5d;stroke-width:5.997;stroke-linecap:round;stroke-linejoin:round;stroke-miterlimit:10;stroke-dasharray:none;stroke-opacity:1"
             id="path30" />
          <path
             d="m 1380.81,1440.33 h 3238.38 v 119.941 H 1380.81 Z"
             style="fill:#2a1506;fill-opacity:1;fill-rule:evenodd;stroke:none"
             id="path32" />
          <path
             d="m 1380.81,1440.33 h 3238.38 v 119.94 H 1380.81 v -119.94"
             style="fill:none;stroke:#2a1506;stroke-width:5.997;stroke-linecap:round;stroke-linejoin:round;stroke-miterlimit:10;stroke-dasharray:none;stroke-opacity:1"
             id="path34" />
          <path
             d="m 1380.81,1560.27 h 3238.38 v 299.852 H 1380.81 Z"
             style="fill:#bf671f;fill-opacity:1;fill-rule:evenodd;stroke:none"
             id="path36" />
          <path
             d="m 1380.81,1560.27 h 3238.38 v 299.85 H 1380.81 v -299.85"
             style="fill:none;stroke:#bf671f;stroke-width:5.997;stroke-linecap:round;stroke-linejoin:round;stroke-miterlimit:10;stroke-dasharray:none;stroke-opacity:1"
             id="path38" />
          <path
             d="m 1380.81,1860.12 h 3238.38 v 509.742 H 1380.81 Z"
             style="fill:#ffe838;fill-opacity:1;fill-rule:evenodd;stroke:none"
             id="path40" />
          <path
             d="m 1380.81,1860.12 h 3238.38 v 509.74 H 1380.81 v -509.74"
             style="fill:none;stroke:#ffe838;stroke-width:5.997;stroke-linecap:round;stroke-linejoin:round;stroke-miterlimit:10;stroke-dasharray:none;stroke-opacity:1"
             id="path42" />
          <path
             d="m 1350.82,2459.82 v -179.91 l 77.91,-44.98 108.13,-48.14 115.79,-24.61 h 118.37 l 115.78,24.61 108.13,48.14 77.91,44.98 108.13,48.14 115.79,24.61 h 118.37 l 115.78,-24.61 108.14,-48.14 77.9,-44.98 108.14,-48.14 115.78,-24.61 h 118.37 l 115.78,24.61 108.14,48.14 77.9,44.98 108.14,48.14 115.78,24.61 h 118.37 l 115.78,-24.61 108.14,-48.14 77.9,-44.98 108.13,-48.14 115.79,-24.61 h 118.37 l 115.78,24.61 108.14,48.14 77.9,44.98 v 179.91 H 1350.82"
             style="fill:#ffffff;fill-opacity:1;fill-rule:evenodd;stroke:none"
             id="path44" />
          <path
             d="m 1350.82,2459.82 v -179.91 l 77.91,-44.98 108.13,-48.14 115.79,-24.61 h 118.37 l 115.78,24.61 108.13,48.14 77.91,44.98 108.13,48.14 115.79,24.61 h 118.37 l 115.78,-24.61 108.14,-48.14 77.9,-44.98 108.14,-48.14 115.78,-24.61 h 118.37 l 115.78,24.61 108.14,48.14 77.9,44.98 108.14,48.14 115.78,24.61 h 118.37 l 115.78,-24.61 108.14,-48.14 77.9,-44.98 108.13,-48.14 115.79,-24.61 h 118.37 l 115.78,24.61 108.14,48.14 77.9,44.98 v 179.91"
             style="fill:none;stroke:#ffffff;stroke-width:5.997;stroke-linecap:round;stroke-linejoin:round;stroke-miterlimit:10;stroke-dasharray:none;stroke-opacity:1"
             id="path46" />
          <path
             d="m 3000,2447.82 48.79,10.38 40.34,29.31 24.94,43.19 5.21,49.6 -15.41,47.43 -33.37,37.07 -45.56,20.29 h -49.88 l -45.56,-20.29 -33.37,-37.07 -15.41,-47.43 5.21,-49.6 24.94,-43.19 40.34,-29.31 48.79,-10.38 v 0"
             style="fill:#c20067;fill-opacity:1;fill-rule:evenodd;stroke:none"
             id="path48" />
          <path
             d="m 3000,2447.82 48.79,10.38 40.34,29.31 24.94,43.19 5.21,49.6 -15.41,47.43 -33.37,37.07 -45.56,20.29 h -49.88 l -45.56,-20.29 -33.37,-37.07 -15.41,-47.43 5.21,-49.6 24.94,-43.19 40.34,-29.31 48.79,-10.38"
             style="fill:none;stroke:#c20067;stroke-width:5.997;stroke-linecap:round;stroke-linejoin:round;stroke-miterlimit:10;stroke-dasharray:none;stroke-opacity:1"
             id="path50" />
        </g>
      </g>
    </g>
  </g>
</svg>
