<?xml version="1.0" encoding="utf-8" standalone="yes"?>
<!DOCTYPE svg PUBLIC "-//W3C//DTD SVG 1.1//EN" "http://www.w3.org/Graphics/SVG/1.1/DTD/svg11.dtd">
<svg width="470" height="446" viewBox="0 0 470 446" style="fill:none;stroke:none;fill-rule:evenodd;clip-rule:evenodd;stroke-linecap:round;stroke-linejoin:round;stroke-miterlimit:1.5;" version="1.1" xmlns="http://www.w3.org/2000/svg" xmlns:xlink="http://www.w3.org/1999/xlink"><style id="fontImports">@import url("https://fonts.googleapis.com/css2?family=Roboto:wght@400;700&amp;display=block");</style><rect id="" x="0" y="0" width="470" height="446" style="fill: #f79438;"></rect><g id="items" style="isolation: isolate"><g id="blend" style="mix-blend-mode: normal"><g id="g-root-tf_1cymsi614jvi8f-fill" data-item-order="-207792" transform="translate(-9, -9)"><g id="tf_1cymsi614jvi8f-fill" stroke="none" fill="#f79438"><g><path d="M 10 10L 478 10L 478 454L 10 454Z"></path></g></g></g><g id="g-root-0.cu_sy_18lxhhq14k5e6k-fill" data-item-order="-40602" transform="translate(153, 111)"><g id="0.cu_sy_18lxhhq14k5e6k-fill" stroke="none" fill="#e8e8e8"><g><path d="M 153.971 84.0587C 153.99 83.3748 154 82.6885 154 82C 154 42.2355 121.765 10 82 10C 42.2355 10 10 42.2355 10 82C 10 121.765 42.2355 154 82 154C 101.9917 154 120.08 145.852 133.126 132.696C 131.117 128.209 130 123.235 130 118C 130 102.3362 140.004 89.0089 153.971 84.0587Z"></path></g></g></g><g id="g-root-2.cu_sy_vb3g7i14k5clp-fill" data-item-order="-40598" transform="translate(273, 183)"><g id="2.cu_sy_vb3g7i14k5clp-fill" stroke="none" fill="#a6da37"><g><path d="M 82 46C 82 65.8823 65.8823 82 46 82C 26.1177 82 10 65.8823 10 46C 10 26.1177 26.1177 10 46 10C 65.8823 10 82 26.1177 82 46Z"></path></g></g></g><g id="g-root-1.cu_sy_qv9y3214k5ddy-fill" data-item-order="-40594" transform="translate(75, 147)"><g id="1.cu_sy_qv9y3214k5ddy-fill" stroke="none" fill="#43dd93"><g><path d="M 58 34C 58 47.2548 47.2548 58 34 58C 20.7452 58 10 47.2548 10 34C 10 20.7452 20.7452 10 34 10C 47.2548 10 58 20.7452 58 34Z"></path></g></g></g><g id="g-root--1.cu_sy_hzmxu614k5e6n-fill" data-item-order="-40589" transform="translate(98.9453125, 140.263671875)"></g><g id="g-root-tx_python_djtfpq14k5eyw-fill" data-item-order="0" transform="translate(15, 39)"><g id="tx_python_djtfpq14k5eyw-fill" stroke="none" fill="#f4f4f4"><g><text style="font: 20px Roboto, sans-serif; white-space: pre;" font-size="20px" font-family="Roboto, sans-serif"><tspan x="13.13" y="34" dominant-baseline="ideographic">Основные компоненты программ на Python</tspan></text></g></g></g><g id="g-root-sigm_1ut139q14k153a-fill" data-item-order="0" transform="translate(84, 156)"></g><g id="g-root-1_qqabpq14jvj7o-fill" data-item-order="0" transform="translate(189, 147)"></g><g id="g-root-2_zof55a14jspan-fill" data-item-order="0" transform="translate(288, 198)"></g><g id="g-root-tx__hunbgu14jvk0d-fill" data-item-order="0" transform="translate(69, 279)"><g id="tx__hunbgu14jvk0d-fill" stroke="none" fill="#43dd93"><g><text style="font: bold 20px Roboto, sans-serif; white-space: pre;" font-weight="bold" font-size="20px" font-family="Roboto, sans-serif"><tspan x="13.56" y="34" dominant-baseline="ideographic">Выражения</tspan></text></g></g></g><g id="g-root-tx__4jta6m14jvifi-fill" data-item-order="0" transform="translate(261, 279)"><g id="tx__4jta6m14jvifi-fill" stroke="none" fill="#a6da37"><g><text style="font: bold 20px Roboto, sans-serif; white-space: pre;" font-weight="bold" font-size="20px" font-family="Roboto, sans-serif"><tspan x="13.39" y="34" dominant-baseline="ideographic">Инструкции</tspan></text></g></g></g><g id="g-root-tx__8zefi14k5de1-fill" data-item-order="0" transform="translate(63, 315)"><g id="tx__8zefi14k5de1-fill" stroke="none" fill="#dffff0"><g><text style="font: 20px Roboto, sans-serif; white-space: pre;" font-size="20px" font-family="Roboto, sans-serif"><tspan x="14.21" y="34" dominant-baseline="ideographic">Комбинации </tspan><tspan x="20.92" y="58" dominant-baseline="ideographic">значений и </tspan><tspan x="18.42" y="82" dominant-baseline="ideographic">операторов</tspan></text></g></g></g><g id="g-root-tx__1lymy1a14k5eru-fill" data-item-order="0" transform="translate(249, 315)"><g id="tx__1lymy1a14k5eru-fill" stroke="none" fill="#f2ffd7"><g><text style="font: 20px Roboto, sans-serif; white-space: pre;" font-size="20px" font-family="Roboto, sans-serif"><tspan x="15.55" y="34" dominant-baseline="ideographic">Указания для </tspan><tspan x="20.76" y="58" dominant-baseline="ideographic">выполнения </tspan><tspan x="35.1" y="82" dominant-baseline="ideographic">действий</tspan></text></g></g></g><g id="g-root-tf_1cymsi614jvi8f-stroke" data-item-order="-207792" transform="translate(-9, -9)"></g><g id="g-root-0.cu_sy_18lxhhq14k5e6k-stroke" data-item-order="-40602" transform="translate(153, 111)"><g id="0.cu_sy_18lxhhq14k5e6k-stroke" fill="none" stroke-linecap="round" stroke-linejoin="round" stroke-miterlimit="4" stroke="#2c2c2c" stroke-width="2"><g><path d="M 153.9711 84.0587C 153.9903 83.3748 154 82.6885 154 82C 154 42.2355 121.7645 10 82 10C 42.2355 10 10 42.2355 10 82C 10 121.7645 42.2355 154 82 154C 101.9917 154 120.0804 145.8521 133.1264 132.696C 131.1173 128.2086 130 123.2348 130 118C 130 102.3362 140.0039 89.0089 153.9711 84.0587Z"></path></g></g></g><g id="g-root-2.cu_sy_vb3g7i14k5clp-stroke" data-item-order="-40598" transform="translate(273, 183)"><g id="2.cu_sy_vb3g7i14k5clp-stroke" fill="none" stroke-linecap="round" stroke-linejoin="round" stroke-miterlimit="4" stroke="#2c2c2c" stroke-width="2"><g><path d="M 82 46C 82 65.8823 65.8823 82 46 82C 26.1177 82 10 65.8823 10 46C 10 26.1177 26.1177 10 46 10C 65.8823 10 82 26.1177 82 46Z"></path></g></g></g><g id="g-root-1.cu_sy_qv9y3214k5ddy-stroke" data-item-order="-40594" transform="translate(75, 147)"><g id="1.cu_sy_qv9y3214k5ddy-stroke" fill="none" stroke-linecap="round" stroke-linejoin="round" stroke-miterlimit="4" stroke="#2c2c2c" stroke-width="2"><g><path d="M 58 34C 58 47.2548 47.2548 58 34 58C 20.7452 58 10 47.2548 10 34C 10 20.7452 20.7452 10 34 10C 47.2548 10 58 20.7452 58 34Z"></path></g></g></g><g id="g-root--1.cu_sy_hzmxu614k5e6n-stroke" data-item-order="-40589" transform="translate(98.9453125, 140.263671875)"><g id="-1.cu_sy_hzmxu614k5e6n-stroke" fill="none" stroke-linecap="round" stroke-linejoin="round" stroke-miterlimit="4" stroke="#f4f4f4" stroke-width="2" stroke-dasharray="5.0, 7.0"><g><path d="M 182.918501 98.2234C 175.841301 99.1205 156.603201 100.9147 136.2687 100.9147C 115.934101 100.9147 89.2496 97.5959 78.4491 95.9365C 45.9432 90.1943 20.891501 79.7437 10 67.0232M 254.957401 73.6066C 263.3495 67.2961 268.0542 60.2159 268.0542 52.7362C 268.0542 34.1674 239.0583 18.0612 196.633 10.0783M 29.9236 24.1902C 41.991601 18.2671 57.720201 13.3897 75.8935 10"></path></g></g></g><g id="g-root-tx_python_djtfpq14k5eyw-stroke" data-item-order="0" transform="translate(15, 39)"></g><g id="g-root-sigm_1ut139q14k153a-stroke" data-item-order="0" transform="translate(84, 156)"><g id="sigm_1ut139q14k153a-stroke" fill="none" stroke-linecap="round" stroke-linejoin="round" stroke-miterlimit="4" stroke="#2c2c2c" stroke-width="2"><g><path d="M 38.92857 38.92857L 12.142857 38.92857C 11.71032 38.926411 11.321504 38.664383 11.157143 38.264282C 10.97762 37.868137 11.072676 37.401501 11.392857 37.10714L 22.728571 25.75C 23.136938 25.333382 23.136938 24.666618 22.728571 24.25L 11.392857 12.892858C 11.072676 12.5985 10.97762 12.131863 11.157143 11.735714C 11.321504 11.335615 11.71032 11.073587 12.142857 11.071428L 38.92857 11.071428"></path></g></g></g><g id="g-root-1_qqabpq14jvj7o-stroke" data-item-order="0" transform="translate(189, 147)"><g id="1_qqabpq14jvj7o-stroke" fill="none" stroke-linecap="round" stroke-linejoin="round" stroke-miterlimit="4" stroke="#2c2c2c" stroke-width="2"><g><path d="M 68.5 47.5L 68.5 29.434C 68.504974 19.530781 60.478218 11.499999 50.574997 11.5L 14.5 11.5C 12.843145 11.5 11.5 12.843145 11.5 14.5L 11.5 77.5C 11.5 79.156853 12.843145 80.5 14.5 80.5L 41.5 80.5M 53.5 11.752L 53.5 23.5C 53.5 25.156855 54.843143 26.5 56.5 26.5L 68.260002 26.5M 80.5 56.5L 80.5 62.5C 80.5 65.813713 77.813713 68.5 74.5 68.5C 71.186287 68.5 68.5 65.813713 68.5 62.5L 68.5 56.5M 74.5 68.512001L 74.5 80.512001M 62.5 62.5C 62.5 65.813713 59.813713 68.5 56.5 68.5L 50.5 68.5L 50.5 56.5L 56.5 56.5C 59.813713 56.5 62.5 59.186287 62.5 62.5ZM 50.5 80.512001L 50.5 68.512001"></path></g></g></g><g id="g-root-2_zof55a14jspan-stroke" data-item-order="0" transform="translate(288, 198)"><g id="2_zof55a14jspan-stroke" fill="none" stroke-linecap="round" stroke-linejoin="round" stroke-miterlimit="4" stroke="#2c2c2c" stroke-width="2"><g><path d="M 24.525 16.125L 49.11425 16.125C 50.080746 16.125 50.86425 16.908503 50.86425 17.875L 50.86425 44.125C 50.86425 45.091499 50.080746 45.875 49.11425 45.875L 24.525 45.875C 24.022903 45.875252 23.544888 45.659821 23.2125 45.283501L 11.631 32.158501C 11.046509 31.49675 11.046509 30.50325 11.631 29.841501L 23.2125 16.716499C 23.544888 16.340178 24.022903 16.12475 24.525 16.125Z"></path></g></g></g><g id="g-root-tx__hunbgu14jvk0d-stroke" data-item-order="0" transform="translate(69, 279)"></g><g id="g-root-tx__4jta6m14jvifi-stroke" data-item-order="0" transform="translate(261, 279)"></g><g id="g-root-tx__8zefi14k5de1-stroke" data-item-order="0" transform="translate(63, 315)"></g><g id="g-root-tx__1lymy1a14k5eru-stroke" data-item-order="0" transform="translate(249, 315)"></g></g></g></svg>