<?xml version="1.0" encoding="UTF-8" standalone="no"?>
<svg
   xmlns:dc="http://purl.org/dc/elements/1.1/"
   xmlns:cc="http://creativecommons.org/ns#"
   xmlns:rdf="http://www.w3.org/1999/02/22-rdf-syntax-ns#"
   xmlns:svg="http://www.w3.org/2000/svg"
   xmlns="http://www.w3.org/2000/svg"
   viewBox="0 0 800 800"
   height="800"
   width="800"
   xml:space="preserve"
   id="svg2"
   version="1.1"><metadata
     id="metadata8"><rdf:RDF><cc:Work
         rdf:about=""><dc:format>image/svg+xml</dc:format><dc:type
           rdf:resource="http://purl.org/dc/dcmitype/StillImage" /></cc:Work></rdf:RDF></metadata><defs
     id="defs6"><clipPath
       id="clipPath20"
       clipPathUnits="userSpaceOnUse"><path
         id="path18"
         d="m 1.5,1.5 h 5997 v 5997 H 1.5 Z" /></clipPath></defs><g
     transform="matrix(1.3333333,0,0,-1.3333333,0,800)"
     id="g10"><g
       transform="scale(0.1)"
       id="g12"><g
         id="g14"><g
           clip-path="url(#clipPath20)"
           id="g16"><path
             id="path22"
             style="fill:none;stroke:#000000;stroke-width:29.98500061;stroke-linecap:round;stroke-linejoin:round;stroke-miterlimit:10;stroke-dasharray:none;stroke-opacity:1"
             d="m 3299.85,4199.4 h 2998.5 -2998.5 v 0 h 599.7 -599.7 749.63 -749.63 l 636.08,636.08 -636.08,-636.08 V 5248.88 4199.4 3000 4199.4 H 1950.52" /><g
             transform="scale(10)"
             id="g24"><text
               id="text28"
               style="font-variant:normal;font-weight:normal;font-size:8.39579964px;font-family:Helvetica;-inkscape-font-specification:Helvetica;writing-mode:lr-tb;fill:#000000;fill-opacity:1;fill-rule:nonzero;stroke:none"
               transform="matrix(1,0,0,-1,329.385,421.773)"><tspan
                 id="tspan26"
                 y="0"
                 x="0 4.6680646 9.3361292">100</tspan></text>
</g><path
             id="path30"
             style="fill:#000000;fill-opacity:1;fill-rule:evenodd;stroke:none"
             d="m 3899.55,4199.4 -161.92,89.96 35.98,-89.96 -35.98,-89.95 161.92,89.95" /><path
             id="path32"
             style="fill:none;stroke:#000000;stroke-width:5.99700022;stroke-linecap:round;stroke-linejoin:round;stroke-miterlimit:10;stroke-dasharray:none;stroke-opacity:1"
             d="m 3899.55,4199.4 -161.92,89.96 35.98,-89.96 -35.98,-89.95 161.92,89.95" /><g
             transform="scale(10)"
             id="g34"><text
               id="text38"
               style="font-variant:normal;font-weight:normal;font-size:8.39579964px;font-family:Helvetica;-inkscape-font-specification:Helvetica;writing-mode:lr-tb;fill:#000000;fill-opacity:1;fill-rule:nonzero;stroke:none"
               transform="matrix(1,0,0,-1,389.355,421.773)"><tspan
                 id="tspan36"
                 y="0"
                 x="0">0</tspan></text>
</g><path
             id="path40"
             style="fill:#000000;fill-opacity:1;fill-rule:evenodd;stroke:none"
             d="m 4049.48,4199.4 -161.93,89.96 35.99,-89.96 -35.99,-89.95 161.93,89.95" /><path
             id="path42"
             style="fill:none;stroke:#000000;stroke-width:5.99700022;stroke-linecap:round;stroke-linejoin:round;stroke-miterlimit:10;stroke-dasharray:none;stroke-opacity:1"
             d="m 4049.48,4199.4 -161.93,89.96 35.99,-89.96 -35.99,-89.95 161.93,89.95" /><g
             transform="scale(10)"
             id="g44"><text
               id="text48"
               style="font-variant:normal;font-weight:normal;font-size:8.39579964px;font-family:Helvetica;-inkscape-font-specification:Helvetica;writing-mode:lr-tb;fill:#000000;fill-opacity:1;fill-rule:nonzero;stroke:none"
               transform="matrix(1,0,0,-1,404.348,421.773)"><tspan
                 id="tspan46"
                 y="0"
                 x="0 4.6680646 9.3361292">360</tspan></text>
</g><path
             id="path50"
             style="fill:#000000;fill-opacity:1;fill-rule:evenodd;stroke:none"
             d="m 3935.93,4835.48 -178.1,-50.89 89.05,-38.16 38.16,-89.05 50.89,178.1" /><path
             id="path52"
             style="fill:none;stroke:#000000;stroke-width:5.99700022;stroke-linecap:round;stroke-linejoin:round;stroke-miterlimit:10;stroke-dasharray:none;stroke-opacity:1"
             d="m 3935.93,4835.48 -178.1,-50.89 89.05,-38.16 38.16,-89.05 50.89,178.1" /><g
             transform="scale(10)"
             id="g54"><text
               id="text58"
               style="font-variant:normal;font-weight:normal;font-size:8.39579964px;font-family:Helvetica;-inkscape-font-specification:Helvetica;writing-mode:lr-tb;fill:#000000;fill-opacity:1;fill-rule:nonzero;stroke:none"
               transform="matrix(1,0,0,-1,392.993,485.381)"><tspan
                 id="tspan56"
                 y="0"
                 x="0 4.6680646">45</tspan></text>
</g><path
             id="path60"
             style="fill:#000000;fill-opacity:1;fill-rule:evenodd;stroke:none"
             d="m 3299.85,5248.88 -89.96,-161.92 89.96,35.98 89.95,-35.98 -89.95,161.92" /><path
             id="path62"
             style="fill:none;stroke:#000000;stroke-width:5.99700022;stroke-linecap:round;stroke-linejoin:round;stroke-miterlimit:10;stroke-dasharray:none;stroke-opacity:1"
             d="m 3299.85,5248.88 -89.96,-161.92 89.96,35.98 89.95,-35.98 -89.95,161.92" /><g
             transform="scale(10)"
             id="g64"><text
               id="text68"
               style="font-variant:normal;font-weight:normal;font-size:8.39579964px;font-family:Helvetica;-inkscape-font-specification:Helvetica;writing-mode:lr-tb;fill:#000000;fill-opacity:1;fill-rule:nonzero;stroke:none"
               transform="matrix(1,0,0,-1,329.385,526.72)"><tspan
                 id="tspan66"
                 y="0"
                 x="0 4.6680646">90</tspan></text>
</g><path
             id="path70"
             style="fill:#000000;fill-opacity:1;fill-rule:evenodd;stroke:none"
             d="m 3299.85,3000 89.95,161.92 -89.95,-35.98 -89.96,35.98 89.96,-161.92" /><path
             id="path72"
             style="fill:none;stroke:#000000;stroke-width:5.99700022;stroke-linecap:round;stroke-linejoin:round;stroke-miterlimit:10;stroke-dasharray:none;stroke-opacity:1"
             d="m 3299.85,3000 89.95,161.92 -89.95,-35.98 -89.96,35.98 89.96,-161.92" /><g
             transform="scale(10)"
             id="g74"><text
               id="text78"
               style="font-variant:normal;font-weight:normal;font-size:8.39579964px;font-family:Helvetica;-inkscape-font-specification:Helvetica;writing-mode:lr-tb;fill:#000000;fill-opacity:1;fill-rule:nonzero;stroke:none"
               transform="matrix(1,0,0,-1,329.385,301.833)"><tspan
                 id="tspan76"
                 y="0"
                 x="0 2.7958014 7.4638662">-90</tspan></text>
</g><path
             id="path80"
             style="fill:#000000;fill-opacity:1;fill-rule:evenodd;stroke:none"
             d="m 1950.52,4199.4 161.93,-89.95 -35.99,89.95 35.99,89.96 -161.93,-89.96" /><path
             id="path82"
             style="fill:none;stroke:#000000;stroke-width:5.99700022;stroke-linecap:round;stroke-linejoin:round;stroke-miterlimit:10;stroke-dasharray:none;stroke-opacity:1"
             d="m 1950.52,4199.4 161.93,-89.95 -35.99,89.95 35.99,89.96 -161.93,-89.96" /><g
             transform="scale(10)"
             id="g84"><text
               id="text88"
               style="font-variant:normal;font-weight:normal;font-size:8.39579964px;font-family:Helvetica;-inkscape-font-specification:Helvetica;writing-mode:lr-tb;fill:#000000;fill-opacity:1;fill-rule:nonzero;stroke:none"
               transform="matrix(1,0,0,-1,194.453,421.773)"><tspan
                 id="tspan86"
                 y="0"
                 x="0 4.6680646 9.3361292">180</tspan></text>
</g><path
             id="path90"
             style="fill:none;stroke:#ff0000;stroke-width:29.98500061;stroke-linecap:round;stroke-linejoin:round;stroke-miterlimit:10;stroke-dasharray:none;stroke-opacity:1"
             d="m 1950.52,4199.4 1949.03,599.7 H 2700.15 L 301.352,1200.9" /><g
             transform="scale(10)"
             id="g92"><text
               id="text100"
               style="font-variant:normal;font-weight:normal;font-size:9.59519958px;font-family:Helvetica;-inkscape-font-specification:Helvetica;writing-mode:lr-tb;fill:#ff0000;fill-opacity:1;fill-rule:nonzero;stroke:none"
               transform="matrix(1,0,0,-1,194.453,422.039)"><tspan
                 id="tspan94"
                 y="0"
                 x="0 3.1952016 6.3904033 11.725334 17.060266 22.395197 25.062662 30.397594 35.732525 38.39999 41.595192 46.930122 49.597588 54.932522 60.267452">(-225.00,-0.00)</tspan><tspan
                 id="tspan96"
                 y="-59.969898"
                 x="194.903 198.09821 203.43314 208.76807 214.103 216.77046 222.10539 227.44032 230.10779 235.44272 240.77765 246.11258 248.78004 254.11497 259.44992 74.962997 78.158203 81.353401 86.688332 92.023262 97.3582 100.02567 105.3606 110.69553 113.36299 118.69792 124.03285 129.36778 132.03525 137.37018 142.70511">(100.00,100.00)(-100.00,100.00)</tspan><tspan
                 id="tspan98"
                 y="299.8501"
                 x="-164.91701 -161.7218 -158.5266 -153.19167 -147.85674 -142.5218 -139.85434 -134.51941 -129.18448 -126.51701 -123.32181 -117.98688 -112.65195 -107.31702 -104.64955 -99.314621 -93.979683">(-500.00,-500.00)</tspan></text>
</g><path
             id="path102"
             style="fill:#ff0000;fill-opacity:1;fill-rule:evenodd;stroke:none"
             d="m 301.352,1200.9 161.918,-89.95 -35.981,89.95 35.981,89.96 -161.918,-89.96" /><path
             id="path104"
             style="fill:none;stroke:#ff0000;stroke-width:5.99700022;stroke-linecap:round;stroke-linejoin:round;stroke-miterlimit:10;stroke-dasharray:none;stroke-opacity:1"
             d="m 301.352,1200.9 161.918,-89.95 -35.981,89.95 35.981,89.96 -161.918,-89.96" /></g></g></g></g></svg>