<?xml version="1.0" encoding="UTF-8" standalone="no"?>
<svg
   xmlns:dc="http://purl.org/dc/elements/1.1/"
   xmlns:cc="http://creativecommons.org/ns#"
   xmlns:rdf="http://www.w3.org/1999/02/22-rdf-syntax-ns#"
   xmlns:svg="http://www.w3.org/2000/svg"
   xmlns="http://www.w3.org/2000/svg"
   viewBox="0 0 800 480"
   height="480"
   width="800"
   xml:space="preserve"
   id="svg2"
   version="1.1"><metadata
     id="metadata8"><rdf:RDF><cc:Work
         rdf:about=""><dc:format>image/svg+xml</dc:format><dc:type
           rdf:resource="http://purl.org/dc/dcmitype/StillImage" /></cc:Work></rdf:RDF></metadata><defs
     id="defs6"><clipPath
       id="clipPath20"
       clipPathUnits="userSpaceOnUse"><path
         id="path18"
         d="m 1.5,0.898438 h 5997 V 3599.0984 H 1.5 Z" /></clipPath></defs><g
     transform="matrix(1.3333333,0,0,-1.3333333,0,480)"
     id="g10"><g
       transform="scale(0.1)"
       id="g12"><g
         id="g14"><g
           clip-path="url(#clipPath20)"
           id="g16"><path
             id="path22"
             style="fill:none;stroke:#000000;stroke-width:29.98500061;stroke-linecap:round;stroke-linejoin:round;stroke-miterlimit:10;stroke-dasharray:none;stroke-opacity:1"
             d="m 601.199,348.727 h 899.551 l 277.98,855.523 -727.75,528.74 -727.757,-528.74 277.976,-855.523 h 899.551 l 212.03,212.027 212.02,-212.027 212.03,212.027 212.03,-212.027 212.02,212.027 212.03,-212.027 212.02,212.027 212.03,-212.027 212.02,212.027 212.03,-212.027 212.03,212.027 212.02,-212.027" /><path
             id="path24"
             style="fill:none;stroke:#ff4500;stroke-width:29.98500061;stroke-linecap:round;stroke-linejoin:round;stroke-miterlimit:10;stroke-dasharray:none;stroke-opacity:1"
             d="M 601.199,348.727 1200.9,2147.83 1800.6,348.727 301.352,1847.98 H 2100.45 L 601.199,348.727" /><path
             id="path26"
             style="fill:#ff4500;fill-opacity:1;fill-rule:evenodd;stroke:none"
             d="M 601.199,348.727 331.336,438.68 391.305,348.727 331.336,258.77 601.199,348.727" /><path
             id="path28"
             style="fill:none;stroke:#ff4500;stroke-width:23.98800087;stroke-linecap:round;stroke-linejoin:round;stroke-miterlimit:10;stroke-dasharray:none;stroke-opacity:1"
             d="M 601.199,348.727 331.336,438.68 391.305,348.727 331.336,258.77 601.199,348.727" /></g></g></g></g></svg>