<?xml version="1.0" encoding="UTF-8" standalone="no"?>
<svg
   xmlns:dc="http://purl.org/dc/elements/1.1/"
   xmlns:cc="http://creativecommons.org/ns#"
   xmlns:rdf="http://www.w3.org/1999/02/22-rdf-syntax-ns#"
   xmlns:svg="http://www.w3.org/2000/svg"
   xmlns="http://www.w3.org/2000/svg"
   viewBox="0 0 480 480"
   height="480"
   width="480"
   xml:space="preserve"
   id="svg2"
   version="1.1"><metadata
     id="metadata8"><rdf:RDF><cc:Work
         rdf:about=""><dc:format>image/svg+xml</dc:format><dc:type
           rdf:resource="http://purl.org/dc/dcmitype/StillImage" /></cc:Work></rdf:RDF></metadata><defs
     id="defs6" /><g
     transform="matrix(1.3333333,0,0,-1.3333333,0,480)"
     id="g10"><g
       transform="scale(0.1)"
       id="g12"><path
         id="path14"
         style="fill:none;stroke:#008000;stroke-width:29.98500061;stroke-linecap:round;stroke-linejoin:round;stroke-miterlimit:10;stroke-dasharray:none;stroke-opacity:1"
         d="m 1800,1800 147.54,14.09 142.21,41.75 131.74,67.92 116.5,91.62 97.06,112.01 74.11,128.36 48.47,140.06 21.1,146.71 -7.05,148.04 -34.95,144.03 -61.57,134.82 -85.97,120.73 -107.27,102.29 -124.68,80.12 -137.6,55.09 -145.53,28.05 h -148.22 l -145.53,-28.05 -137.6,-55.09 -124.68,-80.12 -107.27,-102.29 -85.97,-120.73 -61.57,-134.82 -34.95,-144.03 -7.05,-148.04 21.1,-146.71 48.47,-140.06 74.11,-128.36 97.06,-112.01 116.5,-91.62 131.74,-67.92 142.21,-41.75 147.54,-14.09 129.05,72.88 112.94,95.99 92.72,115.63 69.17,131.08 43.11,141.81 15.49,147.4 -12.68,147.67 -40.41,142.6 -66.65,132.38" /><path
         id="path16"
         style="fill:none;stroke:#008000;stroke-width:29.98500061;stroke-linecap:round;stroke-linejoin:round;stroke-miterlimit:10;stroke-dasharray:none;stroke-opacity:1"
         d="m 2142.74,2927.44 -90.51,117.36 -111.08,98.13 -127.65,75.32 -139.59,49.81 -146.5,22.49 -148.11,-5.64 -144.35,-33.57 -135.41,-60.29 L 978,3106.23 874.703,2999.95 793.391,2876.03 737,2738.96 707.566,2593.7 l -1.414,-148.2 26.664,-145.8 53.774,-138.11 78.937,-125.45 101.254,-108.23 119.909,-87.12 134.23,-62.85 143.69,-36.31 147.98,-8.47 146.89,19.7 140.52,47.14 88.25,119.07 64.13,133.63 37.68,143.34 9.87,147.88 -18.3,147.08 -45.8,140.96 -71.65,129.75 -94.91,113.84 -114.73,93.82 -130.42,70.41 -141.39,44.45 -147.25,16.9 -147.78,-11.28 -142.981,-39.04 -133.008,-65.39 -118.227,-89.39 -99.175,-110.14 -76.536,-126.93" /><path
         id="path18"
         style="fill:none;stroke:#008000;stroke-width:29.98500061;stroke-linecap:round;stroke-linejoin:round;stroke-miterlimit:10;stroke-dasharray:none;stroke-opacity:1"
         d="m 517.773,2658.96 -51.132,-139.11 -23.883,-146.28 4.23,-148.15 32.196,-144.67 58.992,-135.97 83.656,-122.35 105.301,-104.3 123.137,-82.49 136.523,-57.69 144.977,-30.82 148.18,-2.82 146.05,25.28 138.62,52.45 126.18,77.74 109.2,100.22 32.2,144.68 4.23,148.15 -23.89,146.28 -51.13,139.11 -76.53,126.92 -99.18,110.15 -118.23,89.38 -133.01,65.39 -142.97,39.05 -147.79,11.27 L 896.457,2803.49 755.066,2759.03 624.648,2688.62 509.91,2594.8 415,2480.96 l -71.648,-129.75 -45.801,-140.96 -18.297,-147.07 9.871,-147.89 37.68,-143.34 64.125,-133.63 88.254,-119.07 109.195,-100.21 126.187,-77.75 138.622,-52.45 146.042,-25.28 148.18,2.82" /><path
         id="path20"
         style="fill:none;stroke:#008000;stroke-width:29.98500061;stroke-linecap:round;stroke-linejoin:round;stroke-miterlimit:10;stroke-dasharray:none;stroke-opacity:1"
         d="m 1147.41,1266.38 144.98,30.82 136.52,57.69 123.14,82.49 105.3,104.31 83.66,122.34 58.99,135.97 -29.43,145.26 -56.4,137.07 -81.31,123.91 -103.29,106.29 -121.55,84.82 -135.4,60.29 -144.36,33.56 -148.108,5.65 -146.496,-22.49 -139.593,-49.81 -127.645,-75.32 -111.082,-98.12 -90.508,-117.38 -66.656,-132.37 -40.402,-142.6 -12.684,-147.67 15.492,-147.41 43.11,-141.8 69.164,-131.08 92.726,-115.63 112.93,-95.99 129.058,-72.88 140.516,-47.14 146.898,-19.695 147.97,8.461 143.7,36.312 134.23,62.852 119.9,87.12 101.26,108.23 78.94,125.44 53.77,138.12 26.66,145.79 -1.41,148.21 -85.97,120.73 -107.27,102.28 -124.69,80.13" /><path
         id="path22"
         style="fill:none;stroke:#008000;stroke-width:29.98500061;stroke-linecap:round;stroke-linejoin:round;stroke-miterlimit:10;stroke-dasharray:none;stroke-opacity:1"
         d="m 1482.07,2103.14 -137.59,55.09 -145.53,28.04 H 1050.73 L 905.195,2158.23 767.602,2103.14 642.914,2023.01 535.648,1920.73 449.676,1800 l -61.571,-134.82 -34.941,-144.04 -7.055,-148.04 21.094,-146.71 48.477,-140.06 74.105,-128.353 97.059,-112.012 116.504,-91.621 131.738,-67.914 142.211,-41.758 147.543,-14.086 147.54,14.086 142.21,41.758 131.74,67.914 116.5,91.621 97.06,112.012 74.11,128.353 48.47,140.06 21.1,146.71 -7.06,148.04 -34.94,144.04 -61.57,134.82 -127.64,75.32 -139.6,49.81 -146.49,22.49 -148.11,-5.64 -144.36,-33.57 -135.402,-60.28 -121.546,-84.83 -103.293,-106.28 -81.317,-123.92 -56.39,-137.06 -29.434,-145.27 -1.41,-148.2" /><path
         id="path24"
         style="fill:none;stroke:#008000;stroke-width:29.98500061;stroke-linecap:round;stroke-linejoin:round;stroke-miterlimit:10;stroke-dasharray:none;stroke-opacity:1"
         d="m 565.008,1102.57 26.66,-145.797 53.773,-138.117 78.942,-125.441 101.254,-108.235 119.906,-87.117 134.227,-62.851 143.69,-36.313 147.98,-8.461 146.9,19.696 140.51,47.14 129.06,72.879 112.93,95.988 92.72,115.629 69.17,131.082 43.11,141.808 15.49,147.4 -12.68,147.67 -40.4,142.6 -66.66,132.38 -90.51,117.37 -111.08,98.12 -147.25,16.89 -147.78,-11.27 -142.98,-39.04 -133.01,-65.4 -118.22,-89.38 -99.18,-110.15 -76.533,-126.92 -51.133,-139.11 -23.883,-146.28 4.231,-148.152 32.195,-144.672 58.992,-135.969 83.661,-122.348 105.3,-104.301 123.13,-82.488 136.53,-57.695 144.97,-30.817 148.19,-2.82 146.04,25.274 138.62,52.453 126.19,77.742" /><path
         id="path26"
         style="fill:none;stroke:#008000;stroke-width:29.98500061;stroke-linecap:round;stroke-linejoin:round;stroke-miterlimit:10;stroke-dasharray:none;stroke-opacity:1"
         d="m 2108.08,415.547 109.19,100.219 88.26,119.07 64.12,133.625 37.68,143.344 9.87,147.885 -18.29,147.08 -45.8,140.96 -71.65,129.74 -94.91,113.84 -114.74,93.82 -130.42,70.41 -141.39,44.46 -141.39,-44.46 -130.42,-70.41 -114.74,-93.82 -94.91,-113.84 -71.65,-129.74 -45.8,-140.96 -18.29,-147.08 9.87,-147.885 37.68,-143.344 64.12,-133.625 88.26,-119.07 109.19,-100.219 126.19,-77.742 138.62,-52.453 146.04,-25.274 148.19,2.82 144.97,30.817 136.53,57.695 123.13,82.488 105.3,104.301 83.66,122.348 58.99,135.969 32.2,144.672 4.23,148.152 -23.88,146.28 -51.14,139.11 -76.53,126.92 -99.18,110.15 -118.22,89.38 -133.01,65.4" /><path
         id="path28"
         style="fill:none;stroke:#008000;stroke-width:29.98500061;stroke-linecap:round;stroke-linejoin:round;stroke-miterlimit:10;stroke-dasharray:none;stroke-opacity:1"
         d="m 2238.01,1766.58 -142.98,39.04 -147.78,11.27 L 1800,1800 l -111.08,-98.12 -90.51,-117.37 -66.66,-132.38 -40.4,-142.6 -12.68,-147.67 15.49,-147.4 43.11,-141.808 69.17,-131.082 92.72,-115.629 112.93,-95.988 129.06,-72.879 140.51,-47.14 146.9,-19.696 147.98,8.461 143.69,36.313 134.23,62.851 119.9,87.117 101.26,108.235 78.94,125.441 53.77,138.117 26.66,145.797 -1.41,148.2 -29.43,145.27 -56.39,137.06 -81.32,123.92 -103.29,106.28 -121.55,84.83 -135.4,60.28 -144.36,33.57 -148.1,5.64 -146.5,-22.49 -139.6,-49.81 L 1800,1800 l -61.57,-134.82 -34.94,-144.04 -7.06,-148.04 21.1,-146.71 48.47,-140.06 74.11,-128.353" /><path
         id="path30"
         style="fill:none;stroke:#008000;stroke-width:29.98500061;stroke-linecap:round;stroke-linejoin:round;stroke-miterlimit:10;stroke-dasharray:none;stroke-opacity:1"
         d="m 1840.11,957.977 97.06,-112.012 116.5,-91.621 131.74,-67.914 142.21,-41.758 147.54,-14.086 147.54,14.086 142.21,41.758 131.74,67.914 116.51,91.621 97.05,112.012 74.11,128.353 48.48,140.06 21.09,146.71 -7.05,148.04 -34.95,144.04 -61.57,134.82 -85.97,120.73 -107.26,102.28 -124.69,80.13 -137.6,55.09 -145.53,28.04 h -148.22 l -145.53,-28.04 -137.59,-55.09 -124.69,-80.13 L 1885.97,1920.73 1800,1800 l -1.41,-148.21 26.66,-145.79 53.77,-138.12 78.94,-125.44 101.26,-108.23 119.91,-87.12 134.22,-62.852 143.7,-36.312 147.97,-8.461 146.9,19.695 140.51,47.14 129.06,72.88 112.93,95.99 92.73,115.63 69.16,131.08" /><path
         id="path32"
         style="fill:none;stroke:#008000;stroke-width:29.98500061;stroke-linecap:round;stroke-linejoin:round;stroke-miterlimit:10;stroke-dasharray:none;stroke-opacity:1"
         d="m 3296.31,1421.88 43.11,141.8 15.49,147.41 -12.68,147.67 -40.4,142.6 -66.66,132.37 -90.51,117.38 -111.08,98.12 -127.64,75.32 -139.6,49.81 -146.49,22.49 -148.11,-5.65 -144.36,-33.56 -135.4,-60.29 -121.55,-84.82 -103.29,-106.29 -81.31,-123.91 -56.4,-137.07 L 1800,1800 l 58.99,-135.97 83.66,-122.34 105.3,-104.31 123.14,-82.49 136.52,-57.69 144.98,-30.82 148.18,-2.82 146.04,25.28 138.62,52.45 126.19,77.75 109.2,100.21 88.25,119.07 64.13,133.63 37.68,143.34 9.87,147.89 -18.3,147.07 -45.8,140.96 -71.65,129.75 -94.91,113.84 -114.74,93.82 -130.42,70.41 -141.39,44.46 -147.24,16.89 -147.79,-11.27" /><path
         id="path34"
         style="fill:none;stroke:#008000;stroke-width:29.98500061;stroke-linecap:round;stroke-linejoin:round;stroke-miterlimit:10;stroke-dasharray:none;stroke-opacity:1"
         d="m 2408.51,2809.11 -142.97,-39.05 -133.01,-65.39 -118.23,-89.38 -99.17,-110.15 -76.54,-126.92 -51.13,-139.11 -23.89,-146.28 4.23,-148.15 32.2,-144.68 109.2,-100.22 126.18,-77.74 138.62,-52.45 146.05,-25.28 148.18,2.82 144.98,30.82 136.52,57.69 123.14,82.49 105.3,104.3 83.65,122.35 59,135.97 32.19,144.67 4.23,148.15 -23.88,146.28 -51.13,139.11 -76.54,126.93 -99.17,110.14 -118.23,89.39 -133.01,65.39 -142.98,39.04 -147.78,11.28 -147.25,-16.9 -141.39,-44.45 -130.42,-70.41 -114.73,-93.82 -94.91,-113.84 -71.65,-129.75 -45.8,-140.96 -18.3,-147.08 9.87,-147.88 37.68,-143.34 64.13,-133.63 L 1800,1800" /><path
         id="path36"
         style="fill:none;stroke:#008000;stroke-width:29.98500061;stroke-linecap:round;stroke-linejoin:round;stroke-miterlimit:10;stroke-dasharray:none;stroke-opacity:1"
         d="m 1800,1800 140.52,-47.14 146.89,-19.7 147.98,8.47 143.69,36.31 134.23,62.85 119.91,87.12 101.25,108.23 78.94,125.45 53.77,138.11 26.67,145.8 -1.42,148.2 -29.43,145.26 -56.39,137.07 -81.31,123.92 -103.3,106.28 -121.54,84.82 -135.41,60.29 -144.35,33.57 -148.11,5.64 -146.5,-22.49 -139.59,-49.81 -127.65,-75.32 -111.08,-98.13 -90.51,-117.36 -66.65,-132.38 -40.41,-142.6 -12.68,-147.67 15.5,-147.4 43.1,-141.81 69.17,-131.08 92.72,-115.63 112.94,-95.99 L 1800,1800" /><path
         id="path38"
         style="fill:#008000;fill-opacity:1;fill-rule:evenodd;stroke:none"
         d="m 1800,1800 -53.97,29.98 11.99,-29.98 -11.99,-29.98 53.97,29.98" /><path
         id="path40"
         style="fill:none;stroke:#008000;stroke-width:5.99700022;stroke-linecap:round;stroke-linejoin:round;stroke-miterlimit:10;stroke-dasharray:none;stroke-opacity:1"
         d="m 1800,1800 -53.97,29.98 11.99,-29.98 -11.99,-29.98 53.97,29.98" /></g></g></svg>