<?xml version="1.0" encoding="UTF-8" standalone="no"?>
<svg
   xmlns:dc="http://purl.org/dc/elements/1.1/"
   xmlns:cc="http://creativecommons.org/ns#"
   xmlns:rdf="http://www.w3.org/1999/02/22-rdf-syntax-ns#"
   xmlns:svg="http://www.w3.org/2000/svg"
   xmlns="http://www.w3.org/2000/svg"
   viewBox="0 0 800 1000"
   height="1000"
   width="800"
   xml:space="preserve"
   id="svg2"
   version="1.1"><metadata
     id="metadata8"><rdf:RDF><cc:Work
         rdf:about=""><dc:format>image/svg+xml</dc:format><dc:type
           rdf:resource="http://purl.org/dc/dcmitype/StillImage" /></cc:Work></rdf:RDF></metadata><defs
     id="defs6"><clipPath
       id="clipPath20"
       clipPathUnits="userSpaceOnUse"><path
         id="path18"
         d="m 1.5,1.875 h 5997 v 7496.25 H 1.5 Z" /></clipPath></defs><g
     transform="matrix(1.3333333,0,0,-1.3333333,0,1000)"
     id="g10"><g
       transform="scale(0.1)"
       id="g12"><g
         id="g14"><g
           clip-path="url(#clipPath20)"
           id="g16"><path
             id="path22"
             style="fill:none;stroke:#000000;stroke-width:23.98800087;stroke-linecap:round;stroke-linejoin:round;stroke-miterlimit:10;stroke-dasharray:none;stroke-opacity:1"
             d="M 3000,4247.75 H 5698.65 301.352 3000 V 6946.4 1549.1" /><path
             id="path24"
             style="fill:#000000;fill-opacity:1;fill-rule:evenodd;stroke:none"
             d="m 5698.65,4247.75 -107.95,59.97 23.99,-59.97 -23.99,-59.97 107.95,59.97" /><path
             id="path26"
             style="fill:none;stroke:#000000;stroke-width:5.99700022;stroke-linecap:round;stroke-linejoin:round;stroke-miterlimit:10;stroke-dasharray:none;stroke-opacity:1"
             d="m 5698.65,4247.75 -107.95,59.97 23.99,-59.97 -23.99,-59.97 107.95,59.97" /><path
             id="path28"
             style="fill:#000000;fill-opacity:1;fill-rule:evenodd;stroke:none"
             d="m 3000,6946.4 -59.97,-107.94 59.97,23.99 59.97,-23.99 -59.97,107.94" /><path
             id="path30"
             style="fill:none;stroke:#000000;stroke-width:5.99700022;stroke-linecap:round;stroke-linejoin:round;stroke-miterlimit:10;stroke-dasharray:none;stroke-opacity:1"
             d="m 3000,6946.4 -59.97,-107.94 59.97,23.99 59.97,-23.99 -59.97,107.94" /><path
             id="path32"
             style="fill:none;stroke:#0000ff;stroke-width:5.99700022;stroke-linecap:round;stroke-linejoin:round;stroke-miterlimit:10;stroke-dasharray:none;stroke-opacity:1"
             d="M 3000,1549.1 H 5698.65 301.352 3000 v 299.85 H 5698.65 301.352 3000 V 2148.8 H 5698.65 301.352 3000 v 299.85 H 5698.65 301.352 3000 V 2748.5 H 5698.65 301.352 3000 v 299.85 H 5698.65 301.352 3000 V 3348.2 H 5698.65 301.352 3000 v 299.85 H 5698.65 301.352 3000 V 3947.9 H 5698.65 301.352 3000 v 299.85 H 5698.65 301.352 3000 V 4547.6 H 5698.65 301.352" /><g
             transform="scale(10)"
             id="g34"><text
               id="text58"
               style="font-variant:normal;font-weight:normal;font-size:4.79759979px;font-family:Helvetica;-inkscape-font-specification:Helvetica;writing-mode:lr-tb;fill:#0000ff;fill-opacity:1;fill-rule:nonzero;stroke:none"
               transform="matrix(1,0,0,-1,569.265,155.943)"><tspan
                 id="tspan36"
                 y="0"
                 x="0 1.5976008 4.2650666 6.9325318">-450</tspan><tspan
                 id="tspan38"
                 y="-29.985201"
                 x="0 1.5976008 4.2650666 6.9325318">-400</tspan><tspan
                 id="tspan40"
                 y="-59.970001"
                 x="0 1.5976008 4.2650666 6.9325318">-350</tspan><tspan
                 id="tspan42"
                 y="-89.9552"
                 x="0 1.5976008 4.2650666 6.9325318">-300</tspan><tspan
                 id="tspan44"
                 y="-119.94"
                 x="0 1.5976008 4.2650666 6.9325318">-250</tspan><tspan
                 id="tspan46"
                 y="-149.9252"
                 x="0 1.5976008 4.2650666 6.9325318">-200</tspan><tspan
                 id="tspan48"
                 y="-179.9104"
                 x="0 1.5976008 4.2650666 6.9325318">-150</tspan><tspan
                 id="tspan50"
                 y="-209.8952"
                 x="0 1.5976008 4.2650666 6.9325318">-100</tspan><tspan
                 id="tspan52"
                 y="-239.8804"
                 x="0 1.5976008 4.2650666">-50</tspan><tspan
                 id="tspan54"
                 y="-269.8652"
                 x="0">0</tspan><tspan
                 id="tspan56"
                 y="-299.8504"
                 x="0 2.6674657">50</tspan></text>
</g><path
             id="path60"
             style="fill:none;stroke:#0000ff;stroke-width:5.99700022;stroke-linecap:round;stroke-linejoin:round;stroke-miterlimit:10;stroke-dasharray:none;stroke-opacity:1"
             d="M 301.352,4547.6 H 3000 v 299.85 H 5698.65 301.352 3000 V 5147.3 H 5698.65 301.352 3000 v 299.85 H 5698.65 301.352 3000 V 5747 H 5698.65 301.352 3000 v 299.85 H 5698.65 301.352 3000 V 6346.7 H 5698.65 301.352 3000 v 299.85 H 5698.65 301.352 3000 V 6946.4 H 5698.65 301.352 3000 V 7246.25 6946.4 H 301.352 V 1549.1 H 601.199 V 6946.4 H 901.051 V 1549.1 H 1200.9" /><g
             transform="scale(10)"
             id="g62"><text
               id="text82"
               style="font-variant:normal;font-weight:normal;font-size:4.79759979px;font-family:Helvetica;-inkscape-font-specification:Helvetica;writing-mode:lr-tb;fill:#0000ff;fill-opacity:1;fill-rule:nonzero;stroke:none"
               transform="matrix(1,0,0,-1,569.265,485.778)"><tspan
                 id="tspan64"
                 y="0"
                 x="0 2.6674657 5.3349314">100</tspan><tspan
                 id="tspan66"
                 y="-29.9848"
                 x="0 2.6674657 5.3349314">150</tspan><tspan
                 id="tspan68"
                 y="-59.970001"
                 x="0 2.6674657 5.3349314">200</tspan><tspan
                 id="tspan70"
                 y="-89.954803"
                 x="0 2.6674657 5.3349314">250</tspan><tspan
                 id="tspan72"
                 y="-119.94"
                 x="0 2.6674657 5.3349314">300</tspan><tspan
                 id="tspan74"
                 y="-149.9252"
                 x="0 2.6674657 5.3349314">350</tspan><tspan
                 id="tspan76"
                 y="-179.91"
                 x="0 2.6674657 5.3349314">400</tspan><tspan
                 id="tspan78"
                 y="-209.8952"
                 x="0 2.6674657 5.3349314">450</tspan><tspan
                 id="tspan80"
                 y="329.83481"
                 x="-539.72998 -538.13239 -535.4649 -532.79749 -479.75952 -478.16193 -475.49445 -472.827">-450-350</tspan></text>
</g><path
             id="path84"
             style="fill:none;stroke:#0000ff;stroke-width:5.99700022;stroke-linecap:round;stroke-linejoin:round;stroke-miterlimit:10;stroke-dasharray:none;stroke-opacity:1"
             d="m 1200.9,1549.1 v 5397.3 h 299.85 V 1549.1 h 299.85 v 5397.3 h 299.85 V 1549.1 h 299.85 v 5397.3 h 299.85 V 1549.1 H 3000 v 5397.3 h 299.85 V 1549.1 h 299.85 v 5397.3 h 299.85 V 1549.1 h 299.85 v 5397.3 h 299.85 V 1549.1 h 299.85 v 5397.3 h 299.85 V 1549.1 h 299.85 v 5397.3 h 299.85 V 1549.1" /><g
             transform="scale(10)"
             id="g86"><text
               id="text90"
               style="font-variant:normal;font-weight:normal;font-size:4.79759979px;font-family:Helvetica;-inkscape-font-specification:Helvetica;writing-mode:lr-tb;fill:#0000ff;fill-opacity:1;fill-rule:nonzero;stroke:none"
               transform="matrix(1,0,0,-1,149.475,155.943)"><tspan
                 id="tspan88"
                 y="0"
                 x="0 1.5976008 4.2650666 6.9325318 59.970001 61.5676 64.235069 66.902534 119.94 121.5376 124.20506 179.91 182.57747 239.88048 242.54794 245.21541 299.85049 302.51794 305.18542 359.82047 362.48795 365.15543">-250-150-5050150250350</tspan></text>
</g><path
             id="path92"
             style="fill:none;stroke:#87ceeb;stroke-width:17.99099922;stroke-linecap:round;stroke-linejoin:round;stroke-miterlimit:10;stroke-dasharray:none;stroke-opacity:1"
             d="m 5698.65,1549.1 -848.1,848.11 -116.65,98.34 -131.59,77.22 -142.75,53.87 -149.8,28.98 -152.54,3.24 -150.89,-22.59 -144.9,-47.77 -134.75,-71.56 -120.72,-93.31 -103.21,-112.37 -82.73,-128.19 -59.89,-140.34 -35.3,-148.43 -9.71,-152.26 16.17,-151.72 41.57,-146.8 65.78,-137.67 88.1,-124.56 107.89,-107.89 124.56,-88.103 137.67,-65.785 146.8,-41.571 151.72,-16.16 152.26,9.707 148.43,35.305 140.34,59.879 128.19,82.738 112.37,103.21 93.31,120.72 71.56,134.74 47.77,144.91 22.59,150.89 -3.24,152.54 -28.98,149.8 -53.87,142.75 -77.22,131.59 -98.34,116.65" /><path
             id="path94"
             style="fill:#87ceeb;fill-opacity:1;fill-rule:evenodd;stroke:none"
             d="m 4850.55,2397.21 33.92,-118.74 25.44,59.37 59.37,25.44 -118.73,33.93" /><path
             id="path96"
             style="fill:none;stroke:#87ceeb;stroke-width:5.99700022;stroke-linecap:round;stroke-linejoin:round;stroke-miterlimit:10;stroke-dasharray:none;stroke-opacity:1"
             d="m 4850.55,2397.21 33.92,-118.74 25.44,59.37 59.37,25.44 -118.73,33.93" /></g></g></g></g></svg>