<?xml version="1.0" encoding="UTF-8" standalone="no"?>
<svg
   xmlns:dc="http://purl.org/dc/elements/1.1/"
   xmlns:cc="http://creativecommons.org/ns#"
   xmlns:rdf="http://www.w3.org/1999/02/22-rdf-syntax-ns#"
   xmlns:svg="http://www.w3.org/2000/svg"
   xmlns="http://www.w3.org/2000/svg"
   viewBox="0 0 800 800"
   height="800"
   width="800"
   xml:space="preserve"
   id="svg2"
   version="1.1"><metadata
     id="metadata8"><rdf:RDF><cc:Work
         rdf:about=""><dc:format>image/svg+xml</dc:format><dc:type
           rdf:resource="http://purl.org/dc/dcmitype/StillImage" /></cc:Work></rdf:RDF></metadata><defs
     id="defs6"><clipPath
       id="clipPath20"
       clipPathUnits="userSpaceOnUse"><path
         id="path18"
         d="m 1.5,1.5 h 5997 v 5997 H 1.5 Z" /></clipPath></defs><g
     transform="matrix(1.3333333,0,0,-1.3333333,0,800)"
     id="g10"><g
       transform="scale(0.1)"
       id="g12"><g
         id="g14"><g
           clip-path="url(#clipPath20)"
           id="g16"><path
             id="path22"
             style="fill:none;stroke:#000000;stroke-width:23.98800087;stroke-linecap:round;stroke-linejoin:round;stroke-miterlimit:10;stroke-dasharray:none;stroke-opacity:1"
             d="M 3000,2748.13 H 5698.65 301.352 3000 V 5446.78 49.4766" /><path
             id="path24"
             style="fill:#000000;fill-opacity:1;fill-rule:evenodd;stroke:none"
             d="m 5698.65,2748.13 -107.95,59.97 23.99,-59.97 -23.99,-59.97 107.95,59.97" /><path
             id="path26"
             style="fill:none;stroke:#000000;stroke-width:5.99700022;stroke-linecap:round;stroke-linejoin:round;stroke-miterlimit:10;stroke-dasharray:none;stroke-opacity:1"
             d="m 5698.65,2748.13 -107.95,59.97 23.99,-59.97 -23.99,-59.97 107.95,59.97" /><path
             id="path28"
             style="fill:#000000;fill-opacity:1;fill-rule:evenodd;stroke:none"
             d="m 3000,5446.78 -59.97,-107.95 59.97,23.99 59.97,-23.99 -59.97,107.95" /><path
             id="path30"
             style="fill:none;stroke:#000000;stroke-width:5.99700022;stroke-linecap:round;stroke-linejoin:round;stroke-miterlimit:10;stroke-dasharray:none;stroke-opacity:1"
             d="m 3000,5446.78 -59.97,-107.95 59.97,23.99 59.97,-23.99 -59.97,107.95" /><path
             id="path32"
             style="fill:none;stroke:#0000ff;stroke-width:5.99700022;stroke-linecap:round;stroke-linejoin:round;stroke-miterlimit:10;stroke-dasharray:none;stroke-opacity:1"
             d="M 3000,49.4766 H 5698.65 301.352 3000 V 349.328 H 5698.65 301.352 3000 V 649.176 H 5698.65 301.352 3000 V 949.027 H 5698.65 301.352 3000 V 1248.88 H 5698.65 301.352 3000 v 299.85 H 5698.65 301.352 3000 v 299.85 H 5698.65 301.352 3000 v 299.85 H 5698.65 301.352 3000 v 299.85 H 5698.65 301.352 3000 v 299.85 H 5698.65 301.352 3000 v 299.85 H 5698.65 301.352" /><g
             transform="scale(10)"
             id="g34"><text
               id="text58"
               style="font-variant:normal;font-weight:normal;font-size:4.79759979px;font-family:Helvetica;-inkscape-font-specification:Helvetica;writing-mode:lr-tb;fill:#0000ff;fill-opacity:1;fill-rule:nonzero;stroke:none"
               transform="matrix(1,0,0,-1,569.265,5.98047)"><tspan
                 id="tspan36"
                 y="0"
                 x="0 1.5976008 4.2650666 6.9325318">-450</tspan><tspan
                 id="tspan38"
                 y="-29.985201"
                 x="0 1.5976008 4.2650666 6.9325318">-400</tspan><tspan
                 id="tspan40"
                 y="-59.970001"
                 x="0 1.5976008 4.2650666 6.9325318">-350</tspan><tspan
                 id="tspan42"
                 y="-89.9552"
                 x="0 1.5976008 4.2650666 6.9325318">-300</tspan><tspan
                 id="tspan44"
                 y="-119.94"
                 x="0 1.5976008 4.2650666 6.9325318">-250</tspan><tspan
                 id="tspan46"
                 y="-149.9252"
                 x="0 1.5976008 4.2650666 6.9325318">-200</tspan><tspan
                 id="tspan48"
                 y="-179.9104"
                 x="0 1.5976008 4.2650666 6.9325318">-150</tspan><tspan
                 id="tspan50"
                 y="-209.8952"
                 x="0 1.5976008 4.2650666 6.9325318">-100</tspan><tspan
                 id="tspan52"
                 y="-239.8804"
                 x="0 1.5976008 4.2650666">-50</tspan><tspan
                 id="tspan54"
                 y="-269.8652"
                 x="0">0</tspan><tspan
                 id="tspan56"
                 y="-299.8504"
                 x="0 2.6674657">50</tspan></text>
</g><path
             id="path60"
             style="fill:none;stroke:#0000ff;stroke-width:5.99700022;stroke-linecap:round;stroke-linejoin:round;stroke-miterlimit:10;stroke-dasharray:none;stroke-opacity:1"
             d="M 301.352,3047.98 H 3000 v 299.85 H 5698.65 301.352 3000 v 299.85 H 5698.65 301.352 3000 v 299.85 H 5698.65 301.352 3000 v 299.85 H 5698.65 301.352 3000 v 299.85 H 5698.65 301.352 3000 v 299.85 H 5698.65 301.352 3000 v 299.85 H 5698.65 301.352 3000 v 299.85 H 5698.65 301.352 3000 v 299.85 -299.85 H 301.352 V 49.4766 H 601.199 V 5446.78 H 901.051 V 49.4766 H 1200.9" /><g
             transform="scale(10)"
             id="g62"><text
               id="text82"
               style="font-variant:normal;font-weight:normal;font-size:4.79759979px;font-family:Helvetica;-inkscape-font-specification:Helvetica;writing-mode:lr-tb;fill:#0000ff;fill-opacity:1;fill-rule:nonzero;stroke:none"
               transform="matrix(1,0,0,-1,569.265,335.816)"><tspan
                 id="tspan64"
                 y="0"
                 x="0 2.6674657 5.3349314">100</tspan><tspan
                 id="tspan66"
                 y="-29.9848"
                 x="0 2.6674657 5.3349314">150</tspan><tspan
                 id="tspan68"
                 y="-59.970001"
                 x="0 2.6674657 5.3349314">200</tspan><tspan
                 id="tspan70"
                 y="-89.954803"
                 x="0 2.6674657 5.3349314">250</tspan><tspan
                 id="tspan72"
                 y="-119.94"
                 x="0 2.6674657 5.3349314">300</tspan><tspan
                 id="tspan74"
                 y="-149.9252"
                 x="0 2.6674657 5.3349314">350</tspan><tspan
                 id="tspan76"
                 y="-179.91"
                 x="0 2.6674657 5.3349314">400</tspan><tspan
                 id="tspan78"
                 y="-209.8952"
                 x="0 2.6674657 5.3349314">450</tspan><tspan
                 id="tspan80"
                 y="329.83481"
                 x="-539.72998 -538.13239 -535.4649 -532.79749 -479.75952 -478.16193 -475.49445 -472.827">-450-350</tspan></text>
</g><path
             id="path84"
             style="fill:none;stroke:#0000ff;stroke-width:5.99700022;stroke-linecap:round;stroke-linejoin:round;stroke-miterlimit:10;stroke-dasharray:none;stroke-opacity:1"
             d="M 1200.9,49.4766 V 5446.78 h 299.85 V 49.4766 H 1800.6 V 5446.78 h 299.85 V 49.4766 H 2400.3 V 5446.78 h 299.85 V 49.4766 H 3000 V 5446.78 h 299.85 V 49.4766 H 3599.7 V 5446.78 h 299.85 V 49.4766 H 4199.4 V 5446.78 h 299.85 V 49.4766 H 4799.1 V 5446.78 h 299.85 V 49.4766 H 5398.8 V 5446.78 h 299.85 V 49.4766" /><g
             transform="scale(10)"
             id="g86"><text
               id="text90"
               style="font-variant:normal;font-weight:normal;font-size:4.79759979px;font-family:Helvetica;-inkscape-font-specification:Helvetica;writing-mode:lr-tb;fill:#0000ff;fill-opacity:1;fill-rule:nonzero;stroke:none"
               transform="matrix(1,0,0,-1,149.475,5.98047)"><tspan
                 id="tspan88"
                 y="0"
                 x="0 1.5976008 4.2650666 6.9325318 59.970001 61.5676 64.235069 66.902534 119.94 121.5376 124.20506 179.91 182.57747 239.88048 242.54794 245.21541 299.85049 302.51794 305.18542 359.82047 362.48795 365.15543">-250-150-5050150250350</tspan></text>
</g><path
             id="path92"
             style="fill:#0080ff;fill-opacity:1;fill-rule:evenodd;stroke:none"
             d="m 5698.65,2748.13 -399.9,123.35 -410.2,82.92 -416.42,41.67 h -418.49 l -416.42,-41.67 -410.2,-82.92 -399.9,-123.35 -354.2,109.25 -363.32,73.45 -368.83,36.9 h -370.66 l -368.83,-36.9 -363.319,-73.45 -354.199,-109.25 17.59,2698.65 H 5698.65 V 2748.13" /><path
             id="path94"
             style="fill:none;stroke:#0080ff;stroke-width:5.99700022;stroke-linecap:round;stroke-linejoin:round;stroke-miterlimit:10;stroke-dasharray:none;stroke-opacity:1"
             d="m 5698.65,2748.13 -399.9,123.35 -410.2,82.92 -416.42,41.67 h -418.49 l -416.42,-41.67 -410.2,-82.92 -399.9,-123.35 -354.2,109.25 -363.32,73.45 -368.83,36.9 h -370.66 l -368.83,-36.9 -363.319,-73.45 -354.199,-109.25 17.59,2698.65 H 5698.65 V 2748.13" /><path
             id="path96"
             style="fill:#ffffff;fill-opacity:1;fill-rule:evenodd;stroke:none"
             d="m 5698.65,2748.13 -399.9,123.35 -410.2,82.92 -416.42,41.67 h -418.49 l -416.42,-41.67 -410.2,-82.92 -399.9,-123.35 -354.2,109.25 -363.32,73.45 -368.83,36.9 H 1370.11 L 1001.28,2930.83 637.961,2857.38 283.762,2748.13 301.352,49.4766 H 5698.65 V 2748.13" /><path
             id="path98"
             style="fill:none;stroke:#ffffff;stroke-width:5.99700022;stroke-linecap:round;stroke-linejoin:round;stroke-miterlimit:10;stroke-dasharray:none;stroke-opacity:1"
             d="m 5698.65,2748.13 -399.9,123.35 -410.2,82.92 -416.42,41.67 h -418.49 l -416.42,-41.67 -410.2,-82.92 -399.9,-123.35 -354.2,109.25 -363.32,73.45 -368.83,36.9 H 1370.11 L 1001.28,2930.83 637.961,2857.38 283.762,2748.13 301.352,49.4766 H 5698.65 V 2748.13" /><path
             id="path100"
             style="fill:#ffffff;fill-opacity:1;fill-rule:evenodd;stroke:none"
             d="m 1128.94,5284.86 -45.09,-16.41 -14.02,-45.88 -29.54,37.81 -47.97,-0.84 26.83,39.77 -15.62,45.36 46.12,-13.22 38.31,28.87 1.68,-47.94 39.3,-27.52 v 0" /><path
             id="path102"
             style="fill:none;stroke:#ffffff;stroke-width:5.99700022;stroke-linecap:round;stroke-linejoin:round;stroke-miterlimit:10;stroke-dasharray:none;stroke-opacity:1"
             d="m 1128.94,5284.86 -45.09,-16.41 -14.02,-45.88 -29.54,37.81 -47.97,-0.84 26.83,39.77 -15.62,45.36 46.12,-13.22 38.31,28.87 1.68,-47.94 39.3,-27.52" /><path
             id="path104"
             style="fill:#ffffff;fill-opacity:1;fill-rule:evenodd;stroke:none"
             d="m 1842.58,5068.96 -45.08,-16.4 -14.03,-45.88 -29.54,37.8 -47.97,-0.84 26.83,39.78 -15.62,45.36 46.12,-13.22 38.32,28.87 1.67,-47.95 39.3,-27.52 v 0" /><path
             id="path106"
             style="fill:none;stroke:#ffffff;stroke-width:5.99700022;stroke-linecap:round;stroke-linejoin:round;stroke-miterlimit:10;stroke-dasharray:none;stroke-opacity:1"
             d="m 1842.58,5068.96 -45.08,-16.4 -14.03,-45.88 -29.54,37.8 -47.97,-0.84 26.83,39.78 -15.62,45.36 46.12,-13.22 38.32,28.87 1.67,-47.95 39.3,-27.52" /><path
             id="path108"
             style="fill:#00ffff;fill-opacity:1;fill-rule:evenodd;stroke:none"
             d="m 3000,5038.98 -45.08,-16.41 -14.03,-45.88 -29.53,37.81 -47.97,-0.84 26.82,39.77 -15.62,45.37 46.12,-13.23 38.32,28.88 1.67,-47.95 39.3,-27.52 v 0" /><path
             id="path110"
             style="fill:none;stroke:#00ffff;stroke-width:5.99700022;stroke-linecap:round;stroke-linejoin:round;stroke-miterlimit:10;stroke-dasharray:none;stroke-opacity:1"
             d="m 3000,5038.98 -45.08,-16.41 -14.03,-45.88 -29.53,37.81 -47.97,-0.84 26.82,39.77 -15.62,45.37 46.12,-13.23 38.32,28.88 1.67,-47.95 39.3,-27.52" /><path
             id="path112"
             style="fill:#00ffff;fill-opacity:1;fill-rule:evenodd;stroke:none"
             d="m 4427.29,5134.93 -45.09,-16.41 -14.02,-45.88 -29.54,37.81 -47.97,-0.84 26.83,39.78 -15.62,45.36 46.12,-13.23 38.31,28.88 1.68,-47.95 39.3,-27.52 v 0" /><path
             id="path114"
             style="fill:none;stroke:#00ffff;stroke-width:5.99700022;stroke-linecap:round;stroke-linejoin:round;stroke-miterlimit:10;stroke-dasharray:none;stroke-opacity:1"
             d="m 4427.29,5134.93 -45.09,-16.41 -14.02,-45.88 -29.54,37.81 -47.97,-0.84 26.83,39.78 -15.62,45.36 46.12,-13.23 38.31,28.88 1.68,-47.95 39.3,-27.52" /><path
             id="path116"
             style="fill:#00ff00;fill-opacity:1;fill-rule:evenodd;stroke:none"
             d="m 5692.65,4979.01 -45.08,-16.41 -14.03,-45.88 -29.53,37.81 -47.97,-0.84 26.83,39.77 -15.62,45.37 46.11,-13.23 38.32,28.88 1.68,-47.95 39.29,-27.52 v 0" /><path
             id="path118"
             style="fill:none;stroke:#00ff00;stroke-width:5.99700022;stroke-linecap:round;stroke-linejoin:round;stroke-miterlimit:10;stroke-dasharray:none;stroke-opacity:1"
             d="m 5692.65,4979.01 -45.08,-16.41 -14.03,-45.88 -29.53,37.81 -47.97,-0.84 26.83,39.77 -15.62,45.37 46.11,-13.23 38.32,28.88 1.68,-47.95 39.29,-27.52" /><path
             id="path120"
             style="fill:#ffff00;fill-opacity:1;fill-rule:evenodd;stroke:none"
             d="m 973.016,4445.28 -45.086,-16.41 -14.024,-45.88 -29.539,37.8 -47.969,-0.83 26.829,39.77 -15.622,45.36 46.122,-13.22 38.312,28.87 1.676,-47.94 39.301,-27.52 v 0" /><path
             id="path122"
             style="fill:none;stroke:#ffff00;stroke-width:5.99700022;stroke-linecap:round;stroke-linejoin:round;stroke-miterlimit:10;stroke-dasharray:none;stroke-opacity:1"
             d="m 973.016,4445.28 -45.086,-16.41 -14.024,-45.88 -29.539,37.8 -47.969,-0.83 26.829,39.77 -15.622,45.36 46.122,-13.22 38.312,28.87 1.676,-47.94 39.301,-27.52" /><path
             id="path124"
             style="fill:#00ff00;fill-opacity:1;fill-rule:evenodd;stroke:none"
             d="m 2094.45,4529.23 -45.08,-16.4 -14.03,-45.88 -29.53,37.8 -47.97,-0.84 26.82,39.78 -15.61,45.36 46.11,-13.22 38.32,28.87 1.67,-47.95 39.3,-27.52 v 0" /><path
             id="path126"
             style="fill:none;stroke:#00ff00;stroke-width:5.99700022;stroke-linecap:round;stroke-linejoin:round;stroke-miterlimit:10;stroke-dasharray:none;stroke-opacity:1"
             d="m 2094.45,4529.23 -45.08,-16.4 -14.03,-45.88 -29.53,37.8 -47.97,-0.84 26.82,39.78 -15.61,45.36 46.11,-13.22 38.32,28.87 1.67,-47.95 39.3,-27.52" /><path
             id="path128"
             style="fill:#00ffff;fill-opacity:1;fill-rule:evenodd;stroke:none"
             d="m 3155.92,4523.24 -45.08,-16.41 -14.03,-45.88 -29.53,37.8 -47.97,-0.83 26.83,39.77 -15.62,45.36 46.11,-13.22 38.32,28.87 1.67,-47.94 39.3,-27.52 v 0" /><path
             id="path130"
             style="fill:none;stroke:#00ffff;stroke-width:5.99700022;stroke-linecap:round;stroke-linejoin:round;stroke-miterlimit:10;stroke-dasharray:none;stroke-opacity:1"
             d="m 3155.92,4523.24 -45.08,-16.41 -14.03,-45.88 -29.53,37.8 -47.97,-0.83 26.83,39.77 -15.62,45.36 46.11,-13.22 38.32,28.87 1.67,-47.94 39.3,-27.52" /><path
             id="path132"
             style="fill:#ffff00;fill-opacity:1;fill-rule:evenodd;stroke:none"
             d="m 4457.27,4559.22 -45.08,-16.41 -14.03,-45.88 -29.53,37.81 -47.97,-0.84 26.82,39.78 -15.62,45.36 46.12,-13.23 38.32,28.87 1.67,-47.94 39.3,-27.52" /><path
             id="path134"
             style="fill:none;stroke:#ffff00;stroke-width:5.99700022;stroke-linecap:round;stroke-linejoin:round;stroke-miterlimit:10;stroke-dasharray:none;stroke-opacity:1"
             d="m 4457.27,4559.22 -45.08,-16.41 -14.03,-45.88 -29.53,37.81 -47.97,-0.84 26.82,39.78 -15.62,45.36 46.12,-13.23 38.32,28.87 1.67,-47.94 39.3,-27.52" /><path
             id="path136"
             style="fill:#ffffff;fill-opacity:1;fill-rule:evenodd;stroke:none"
             d="m 4865.07,4667.17 -45.09,-16.41 -14.02,-45.88 -29.54,37.8 -47.97,-0.83 26.83,39.77 -15.62,45.36 46.12,-13.22 38.31,28.87 1.68,-47.95 39.3,-27.51 v 0" /><path
             id="path138"
             style="fill:none;stroke:#ffffff;stroke-width:5.99700022;stroke-linecap:round;stroke-linejoin:round;stroke-miterlimit:10;stroke-dasharray:none;stroke-opacity:1"
             d="m 4865.07,4667.17 -45.09,-16.41 -14.02,-45.88 -29.54,37.8 -47.97,-0.83 26.83,39.77 -15.62,45.36 46.12,-13.22 38.31,28.87 1.68,-47.95 39.3,-27.51" /><path
             id="path140"
             style="fill:#00ffff;fill-opacity:1;fill-rule:evenodd;stroke:none"
             d="m 403.301,4055.47 -45.086,-16.41 -14.024,-45.88 -29.539,37.81 -47.968,-0.84 26.828,39.78 -15.621,45.36 46.121,-13.22 38.312,28.87 1.676,-47.95 39.301,-27.52" /><path
             id="path142"
             style="fill:none;stroke:#00ffff;stroke-width:5.99700022;stroke-linecap:round;stroke-linejoin:round;stroke-miterlimit:10;stroke-dasharray:none;stroke-opacity:1"
             d="m 403.301,4055.47 -45.086,-16.41 -14.024,-45.88 -29.539,37.81 -47.968,-0.84 26.828,39.78 -15.621,45.36 46.121,-13.22 38.312,28.87 1.676,-47.95 39.301,-27.52" /><path
             id="path144"
             style="fill:#00ffff;fill-opacity:1;fill-rule:evenodd;stroke:none"
             d="m 1842.58,3989.5 -45.08,-16.4 -14.03,-45.89 -29.54,37.81 -47.97,-0.84 26.83,39.78 -15.62,45.36 46.12,-13.22 38.32,28.87 1.67,-47.95 39.3,-27.52 v 0" /><path
             id="path146"
             style="fill:none;stroke:#00ffff;stroke-width:5.99700022;stroke-linecap:round;stroke-linejoin:round;stroke-miterlimit:10;stroke-dasharray:none;stroke-opacity:1"
             d="m 1842.58,3989.5 -45.08,-16.4 -14.03,-45.89 -29.54,37.81 -47.97,-0.84 26.83,39.78 -15.62,45.36 46.12,-13.22 38.32,28.87 1.67,-47.95 39.3,-27.52" /><path
             id="path148"
             style="fill:#00ff00;fill-opacity:1;fill-rule:evenodd;stroke:none"
             d="m 3191.9,3875.56 -45.08,-16.41 -14.03,-45.88 -29.53,37.81 -47.97,-0.84 26.83,39.78 -15.62,45.36 46.11,-13.23 38.32,28.88 1.68,-47.95 39.29,-27.52 v 0" /><path
             id="path150"
             style="fill:none;stroke:#00ff00;stroke-width:5.99700022;stroke-linecap:round;stroke-linejoin:round;stroke-miterlimit:10;stroke-dasharray:none;stroke-opacity:1"
             d="m 3191.9,3875.56 -45.08,-16.41 -14.03,-45.88 -29.53,37.81 -47.97,-0.84 26.83,39.78 -15.62,45.36 46.11,-13.23 38.32,28.88 1.68,-47.95 39.29,-27.52" /><path
             id="path152"
             style="fill:#ffff00;fill-opacity:1;fill-rule:evenodd;stroke:none"
             d="m 4271.36,4103.45 -45.08,-16.41 -14.03,-45.88 -29.53,37.8 -47.97,-0.83 26.83,39.77 -15.62,45.37 46.11,-13.23 38.32,28.87 1.68,-47.95 39.29,-27.51" /><path
             id="path154"
             style="fill:none;stroke:#ffff00;stroke-width:5.99700022;stroke-linecap:round;stroke-linejoin:round;stroke-miterlimit:10;stroke-dasharray:none;stroke-opacity:1"
             d="m 4271.36,4103.45 -45.08,-16.41 -14.03,-45.88 -29.53,37.8 -47.97,-0.83 26.83,39.77 -15.62,45.37 46.11,-13.23 38.32,28.87 1.68,-47.95 39.29,-27.51" /><path
             id="path156"
             style="fill:#ff00ff;fill-opacity:1;fill-rule:evenodd;stroke:none"
             d="m 4919.04,4067.46 -45.08,-16.4 -14.03,-45.88 -29.54,37.8 -47.96,-0.84 26.82,39.78 -15.62,45.36 46.12,-13.22 38.32,28.87 1.67,-47.95 39.3,-27.52 v 0" /><path
             id="path158"
             style="fill:none;stroke:#ff00ff;stroke-width:5.99700022;stroke-linecap:round;stroke-linejoin:round;stroke-miterlimit:10;stroke-dasharray:none;stroke-opacity:1"
             d="m 4919.04,4067.46 -45.08,-16.4 -14.03,-45.88 -29.54,37.8 -47.96,-0.84 26.82,39.78 -15.62,45.36 46.12,-13.22 38.32,28.87 1.67,-47.95 39.3,-27.52" /><path
             id="path160"
             style="fill:#ffffff;fill-opacity:1;fill-rule:evenodd;stroke:none"
             d="m 403.301,3233.88 -45.086,-16.41 -14.024,-45.88 -29.539,37.81 -47.968,-0.84 26.828,39.78 -15.621,45.36 46.121,-13.22 38.312,28.87 1.676,-47.95 39.301,-27.52" /><path
             id="path162"
             style="fill:none;stroke:#ffffff;stroke-width:5.99700022;stroke-linecap:round;stroke-linejoin:round;stroke-miterlimit:10;stroke-dasharray:none;stroke-opacity:1"
             d="m 403.301,3233.88 -45.086,-16.41 -14.024,-45.88 -29.539,37.81 -47.968,-0.84 26.828,39.78 -15.621,45.36 46.121,-13.22 38.312,28.87 1.676,-47.95 39.301,-27.52" /><path
             id="path164"
             style="fill:#ffffff;fill-opacity:1;fill-rule:evenodd;stroke:none"
             d="m 2232.38,3341.83 -45.08,-16.41 -14.03,-45.88 -29.53,37.81 -47.97,-0.84 26.83,39.77 -15.62,45.36 46.11,-13.22 38.32,28.87 1.68,-47.94 39.29,-27.52 v 0" /><path
             id="path166"
             style="fill:none;stroke:#ffffff;stroke-width:5.99700022;stroke-linecap:round;stroke-linejoin:round;stroke-miterlimit:10;stroke-dasharray:none;stroke-opacity:1"
             d="m 2232.38,3341.83 -45.08,-16.41 -14.03,-45.88 -29.53,37.81 -47.97,-0.84 26.83,39.77 -15.62,45.36 46.11,-13.22 38.32,28.87 1.68,-47.94 39.29,-27.52" /><path
             id="path168"
             style="fill:#ff00ff;fill-opacity:1;fill-rule:evenodd;stroke:none"
             d="m 3065.97,3329.84 -45.09,-16.41 -14.02,-45.88 -29.54,37.8 -47.97,-0.83 26.83,39.77 -15.62,45.36 46.12,-13.22 38.31,28.87 1.68,-47.95 39.3,-27.51 v 0" /><path
             id="path170"
             style="fill:none;stroke:#ff00ff;stroke-width:5.99700022;stroke-linecap:round;stroke-linejoin:round;stroke-miterlimit:10;stroke-dasharray:none;stroke-opacity:1"
             d="m 3065.97,3329.84 -45.09,-16.41 -14.02,-45.88 -29.54,37.8 -47.97,-0.83 26.83,39.77 -15.62,45.36 46.12,-13.22 38.31,28.87 1.68,-47.95 39.3,-27.51" /><path
             id="path172"
             style="fill:#ff00ff;fill-opacity:1;fill-rule:evenodd;stroke:none"
             d="m 4025.49,3317.84 -45.08,-16.41 -14.03,-45.88 -29.54,37.81 -47.97,-0.84 26.83,39.78 -15.62,45.36 46.12,-13.23 38.31,28.87 1.68,-47.94 39.3,-27.52 v 0" /><path
             id="path174"
             style="fill:none;stroke:#ff00ff;stroke-width:5.99700022;stroke-linecap:round;stroke-linejoin:round;stroke-miterlimit:10;stroke-dasharray:none;stroke-opacity:1"
             d="m 4025.49,3317.84 -45.08,-16.41 -14.03,-45.88 -29.54,37.81 -47.97,-0.84 26.83,39.78 -15.62,45.36 46.12,-13.23 38.31,28.87 1.68,-47.94 39.3,-27.52" /><path
             id="path176"
             style="fill:#ff00ff;fill-opacity:1;fill-rule:evenodd;stroke:none"
             d="m 5176.91,3485.76 -45.08,-16.41 -14.03,-45.88 -29.53,37.8 -47.97,-0.83 26.83,39.77 -15.63,45.36 46.12,-13.22 38.32,28.87 1.67,-47.95 39.3,-27.51 v 0" /><path
             id="path178"
             style="fill:none;stroke:#ff00ff;stroke-width:5.99700022;stroke-linecap:round;stroke-linejoin:round;stroke-miterlimit:10;stroke-dasharray:none;stroke-opacity:1"
             d="m 5176.91,3485.76 -45.08,-16.41 -14.03,-45.88 -29.53,37.8 -47.97,-0.83 26.83,39.77 -15.63,45.36 46.12,-13.22 38.32,28.87 1.67,-47.95 39.3,-27.51" /><path
             id="path180"
             style="fill:#79bafe;fill-opacity:1;fill-rule:evenodd;stroke:none"
             d="m 3000,2448.28 -152.02,-12.94 -147.66,-38.45 -139.03,-62.84 -126.4,-85.44 -110.16,-105.57 -90.72,-122.67 -68.69,-136.24 -44.68,-145.89 -19.38,-151.34 6.47,-152.43 32.15,-149.15 56.89,-141.57 80,-129.93 100.8,-114.531 118.7,-95.848 133.2,-74.41 143.86,-50.828 150.38,-25.785 h 152.58 l 150.38,25.785 143.86,50.828 133.2,74.41 118.7,95.848 100.8,114.531 80,129.93 56.89,141.57 32.15,149.15 6.47,152.43 -19.38,151.34 -44.68,145.89 -68.69,136.24 -90.72,122.67 -110.15,105.57 -126.41,85.44 -139.03,62.84 -147.66,38.45 -152.02,12.94 v 0" /><path
             id="path182"
             style="fill:none;stroke:#79bafe;stroke-width:5.99700022;stroke-linecap:round;stroke-linejoin:round;stroke-miterlimit:10;stroke-dasharray:none;stroke-opacity:1"
             d="m 3000,2448.28 -152.02,-12.94 -147.66,-38.45 -139.03,-62.84 -126.4,-85.44 -110.16,-105.57 -90.72,-122.67 -68.69,-136.24 -44.68,-145.89 -19.38,-151.34 6.47,-152.43 32.15,-149.15 56.89,-141.57 80,-129.93 100.8,-114.531 118.7,-95.848 133.2,-74.41 143.86,-50.828 150.38,-25.785 h 152.58 l 150.38,25.785 143.86,50.828 133.2,74.41 118.7,95.848 100.8,114.531 80,129.93 56.89,141.57 32.15,149.15 6.47,152.43 -19.38,151.34 -44.68,145.89 -68.69,136.24 -90.72,122.67 -110.15,105.57 -126.41,85.44 -139.03,62.84 -147.66,38.45 -152.02,12.94 v -59.98" /><path
             id="path184"
             style="fill:#79bafe;fill-opacity:1;fill-rule:evenodd;stroke:none"
             d="m 3000,2388.3 137.15,14.42 131.16,42.62 119.44,68.95 102.48,92.28 81.06,111.57 56.09,125.99 28.67,134.89 v 137.91 l -28.67,134.89 -56.09,125.99 -81.06,111.57 -102.48,92.28 -119.44,68.95 -131.16,42.62 -137.15,14.41 -137.15,-14.41 -131.16,-42.62 -119.44,-68.95 -102.48,-92.28 -81.06,-111.57 -56.09,-125.99 -28.67,-134.89 v -137.91 l 28.67,-134.89 56.09,-125.99 81.06,-111.57 102.48,-92.28 119.44,-68.95 131.16,-42.62 137.15,-14.42 v 0" /><path
             id="path186"
             style="fill:none;stroke:#79bafe;stroke-width:5.99700022;stroke-linecap:round;stroke-linejoin:round;stroke-miterlimit:10;stroke-dasharray:none;stroke-opacity:1"
             d="m 3000,2388.3 137.15,14.42 131.16,42.62 119.44,68.95 102.48,92.28 81.06,111.57 56.09,125.99 28.67,134.89 v 137.91 l -28.67,134.89 -56.09,125.99 -81.06,111.57 -102.48,92.28 -119.44,68.95 -131.16,42.62 -137.15,14.41 -137.15,-14.41 -131.16,-42.62 -119.44,-68.95 -102.48,-92.28 -81.06,-111.57 -56.09,-125.99 -28.67,-134.89 v -137.91 l 28.67,-134.89 56.09,-125.99 81.06,-111.57 102.48,-92.28 119.44,-68.95 131.16,-42.62 137.15,-14.42 v 1259.38" /><path
             id="path188"
             style="fill:#79bafe;fill-opacity:1;fill-rule:evenodd;stroke:none"
             d="m 3000,3647.68 113.26,15.56 104.86,45.55 88.68,72.15 65.93,93.4 38.28,107.72 7.8,114.05 -23.26,111.94 -52.59,101.5 -78.03,83.55 -97.68,59.4 -110.09,30.85 h -114.32 l -110.09,-30.85 -97.68,-59.4 -78.03,-83.55 -52.59,-101.5 -23.26,-111.94 7.8,-114.05 38.28,-107.72 65.93,-93.4 88.68,-72.15 104.86,-45.55 113.26,-15.56 v 0" /><path
             id="path190"
             style="fill:none;stroke:#79bafe;stroke-width:5.99700022;stroke-linecap:round;stroke-linejoin:round;stroke-miterlimit:10;stroke-dasharray:none;stroke-opacity:1"
             d="m 3000,3647.68 113.26,15.56 104.86,45.55 88.68,72.15 65.93,93.4 38.28,107.72 7.8,114.05 -23.26,111.94 -52.59,101.5 -78.03,83.55 -97.68,59.4 -110.09,30.85 h -114.32 l -110.09,-30.85 -97.68,-59.4 -78.03,-83.55 -52.59,-101.5 -23.26,-111.94 7.8,-114.05 38.28,-107.72 65.93,-93.4 88.68,-72.15 104.86,-45.55 113.26,-15.56 -149.93,569.71" /><path
             id="path192"
             style="fill:#000000;fill-opacity:1;fill-rule:evenodd;stroke:none"
             d="m 2850.07,4217.39 19.51,4.81 15.05,13.32 7.12,18.79 -2.42,19.95 -11.42,16.53 -17.79,9.34 h -20.09 l -17.79,-9.34 -11.42,-16.53 -2.42,-19.95 7.13,-18.79 15.04,-13.32 19.5,-4.81 v 0" /><path
             id="path194"
             style="fill:none;stroke:#000000;stroke-width:5.99700022;stroke-linecap:round;stroke-linejoin:round;stroke-miterlimit:10;stroke-dasharray:none;stroke-opacity:1"
             d="m 2850.07,4217.39 19.51,4.81 15.05,13.32 7.12,18.79 -2.42,19.95 -11.42,16.53 -17.79,9.34 h -20.09 l -17.79,-9.34 -11.42,-16.53 -2.42,-19.95 7.13,-18.79 15.04,-13.32 19.5,-4.81" /><path
             id="path196"
             style="fill:#000000;fill-opacity:1;fill-rule:evenodd;stroke:none"
             d="m 3149.93,4217.39 19.5,4.81 15.04,13.32 7.13,18.79 -2.42,19.95 -11.42,16.53 -17.79,9.34 h -20.09 l -17.79,-9.34 -11.41,-16.53 -2.43,-19.95 7.13,-18.79 15.04,-13.32 19.51,-4.81 v 0" /><path
             id="path198"
             style="fill:none;stroke:#000000;stroke-width:5.99700022;stroke-linecap:round;stroke-linejoin:round;stroke-miterlimit:10;stroke-dasharray:none;stroke-opacity:1"
             d="m 3149.93,4217.39 19.5,4.81 15.04,13.32 7.13,18.79 -2.42,19.95 -11.42,16.53 -17.79,9.34 h -20.09 l -17.79,-9.34 -11.41,-16.53 -2.43,-19.95 7.13,-18.79 15.04,-13.32 19.51,-4.81" /><path
             id="path200"
             style="fill:none;stroke:#000000;stroke-width:29.98500061;stroke-linecap:round;stroke-linejoin:round;stroke-miterlimit:10;stroke-dasharray:none;stroke-opacity:1"
             d="m 2820.09,3947.53 v 0" /><path
             id="path202"
             style="fill:none;stroke:#000000;stroke-width:29.98500061;stroke-linecap:round;stroke-linejoin:round;stroke-miterlimit:10;stroke-dasharray:none;stroke-opacity:1"
             d="m 2853.07,3913.96 v 0" /><path
             id="path204"
             style="fill:none;stroke:#000000;stroke-width:29.98500061;stroke-linecap:round;stroke-linejoin:round;stroke-miterlimit:10;stroke-dasharray:none;stroke-opacity:1"
             d="m 2890.89,3885.98 v 0" /><path
             id="path206"
             style="fill:none;stroke:#000000;stroke-width:29.98500061;stroke-linecap:round;stroke-linejoin:round;stroke-miterlimit:10;stroke-dasharray:none;stroke-opacity:1"
             d="m 2932.63,3864.25 v 0" /><path
             id="path208"
             style="fill:none;stroke:#000000;stroke-width:29.98500061;stroke-linecap:round;stroke-linejoin:round;stroke-miterlimit:10;stroke-dasharray:none;stroke-opacity:1"
             d="m 2977.25,3849.32 v 0" /><path
             id="path210"
             style="fill:none;stroke:#000000;stroke-width:29.98500061;stroke-linecap:round;stroke-linejoin:round;stroke-miterlimit:10;stroke-dasharray:none;stroke-opacity:1"
             d="m 3023.66,3841.56 v 0" /><path
             id="path212"
             style="fill:none;stroke:#000000;stroke-width:29.98500061;stroke-linecap:round;stroke-linejoin:round;stroke-miterlimit:10;stroke-dasharray:none;stroke-opacity:1"
             d="m 3070.7,3841.14 v 0" /><path
             id="path214"
             style="fill:none;stroke:#000000;stroke-width:29.98500061;stroke-linecap:round;stroke-linejoin:round;stroke-miterlimit:10;stroke-dasharray:none;stroke-opacity:1"
             d="m 3117.24,3848.1 v 0" /><path
             id="path216"
             style="fill:#ff4500;fill-opacity:1;fill-rule:evenodd;stroke:none"
             d="m 3059.97,4139.43 534.48,-75.12 -534.48,-75.11 -34.57,2.94 -29.87,17.64 -19.26,28.86 -4.83,34.36 10.56,33.05 23.85,25.2 32.42,12.35 21.7,-4.17" /><path
             id="path218"
             style="fill:none;stroke:#000000;stroke-width:5.99700022;stroke-linecap:round;stroke-linejoin:round;stroke-miterlimit:10;stroke-dasharray:none;stroke-opacity:1"
             d="m 3059.97,4139.43 534.48,-75.12 -534.48,-75.11 -34.57,2.94 -29.87,17.64 -19.26,28.86 -4.83,34.36 10.56,33.05 23.85,25.2 32.42,12.35" /></g></g></g></g></svg>