<?xml version="1.0" encoding="UTF-8" standalone="no"?>
<svg
   xmlns:dc="http://purl.org/dc/elements/1.1/"
   xmlns:cc="http://creativecommons.org/ns#"
   xmlns:rdf="http://www.w3.org/1999/02/22-rdf-syntax-ns#"
   xmlns:svg="http://www.w3.org/2000/svg"
   xmlns="http://www.w3.org/2000/svg"
   viewBox="0 0 800 800"
   height="800"
   width="800"
   xml:space="preserve"
   id="svg2"
   version="1.1"><metadata
     id="metadata8"><rdf:RDF><cc:Work
         rdf:about=""><dc:format>image/svg+xml</dc:format><dc:type
           rdf:resource="http://purl.org/dc/dcmitype/StillImage" /></cc:Work></rdf:RDF></metadata><defs
     id="defs6"><clipPath
       id="clipPath20"
       clipPathUnits="userSpaceOnUse"><path
         id="path18"
         d="m 1.5,1.5 h 5997 v 5997 H 1.5 Z" /></clipPath></defs><g
     transform="matrix(1.3333333,0,0,-1.3333333,0,800)"
     id="g10"><g
       transform="scale(0.1)"
       id="g12"><g
         id="g14"><g
           clip-path="url(#clipPath20)"
           id="g16"><path
             id="path22"
             style="fill:none;stroke:#000000;stroke-width:23.98800087;stroke-linecap:round;stroke-linejoin:round;stroke-miterlimit:10;stroke-dasharray:none;stroke-opacity:1"
             d="M 3000,2748.13 H 5698.65 301.352 3000 V 5446.78 49.4766" /><path
             id="path24"
             style="fill:#000000;fill-opacity:1;fill-rule:evenodd;stroke:none"
             d="m 5698.65,2748.13 -107.95,59.97 23.99,-59.97 -23.99,-59.97 107.95,59.97" /><path
             id="path26"
             style="fill:none;stroke:#000000;stroke-width:5.99700022;stroke-linecap:round;stroke-linejoin:round;stroke-miterlimit:10;stroke-dasharray:none;stroke-opacity:1"
             d="m 5698.65,2748.13 -107.95,59.97 23.99,-59.97 -23.99,-59.97 107.95,59.97" /><path
             id="path28"
             style="fill:#000000;fill-opacity:1;fill-rule:evenodd;stroke:none"
             d="m 3000,5446.78 -59.97,-107.95 59.97,23.99 59.97,-23.99 -59.97,107.95" /><path
             id="path30"
             style="fill:none;stroke:#000000;stroke-width:5.99700022;stroke-linecap:round;stroke-linejoin:round;stroke-miterlimit:10;stroke-dasharray:none;stroke-opacity:1"
             d="m 3000,5446.78 -59.97,-107.95 59.97,23.99 59.97,-23.99 -59.97,107.95" /><path
             id="path32"
             style="fill:none;stroke:#0000ff;stroke-width:5.99700022;stroke-linecap:round;stroke-linejoin:round;stroke-miterlimit:10;stroke-dasharray:none;stroke-opacity:1"
             d="M 3000,49.4766 H 5698.65 301.352 3000 V 349.328 H 5698.65 301.352 3000 V 649.176 H 5698.65 301.352 3000 V 949.027 H 5698.65 301.352 3000 V 1248.88 H 5698.65 301.352 3000 v 299.85 H 5698.65 301.352 3000 v 299.85 H 5698.65 301.352 3000 v 299.85 H 5698.65 301.352 3000 v 299.85 H 5698.65 301.352 3000 v 299.85 H 5698.65 301.352 3000 v 299.85 H 5698.65 301.352" /><g
             transform="scale(10)"
             id="g34"><text
               id="text58"
               style="font-variant:normal;font-weight:normal;font-size:4.79759979px;font-family:Helvetica;-inkscape-font-specification:Helvetica;writing-mode:lr-tb;fill:#0000ff;fill-opacity:1;fill-rule:nonzero;stroke:none"
               transform="matrix(1,0,0,-1,569.265,5.98047)"><tspan
                 id="tspan36"
                 y="0"
                 x="0 1.5976008 4.2650666 6.9325318">-450</tspan><tspan
                 id="tspan38"
                 y="-29.985201"
                 x="0 1.5976008 4.2650666 6.9325318">-400</tspan><tspan
                 id="tspan40"
                 y="-59.970001"
                 x="0 1.5976008 4.2650666 6.9325318">-350</tspan><tspan
                 id="tspan42"
                 y="-89.9552"
                 x="0 1.5976008 4.2650666 6.9325318">-300</tspan><tspan
                 id="tspan44"
                 y="-119.94"
                 x="0 1.5976008 4.2650666 6.9325318">-250</tspan><tspan
                 id="tspan46"
                 y="-149.9252"
                 x="0 1.5976008 4.2650666 6.9325318">-200</tspan><tspan
                 id="tspan48"
                 y="-179.9104"
                 x="0 1.5976008 4.2650666 6.9325318">-150</tspan><tspan
                 id="tspan50"
                 y="-209.8952"
                 x="0 1.5976008 4.2650666 6.9325318">-100</tspan><tspan
                 id="tspan52"
                 y="-239.8804"
                 x="0 1.5976008 4.2650666">-50</tspan><tspan
                 id="tspan54"
                 y="-269.8652"
                 x="0">0</tspan><tspan
                 id="tspan56"
                 y="-299.8504"
                 x="0 2.6674657">50</tspan></text>
</g><path
             id="path60"
             style="fill:none;stroke:#0000ff;stroke-width:5.99700022;stroke-linecap:round;stroke-linejoin:round;stroke-miterlimit:10;stroke-dasharray:none;stroke-opacity:1"
             d="M 301.352,3047.98 H 3000 v 299.85 H 5698.65 301.352 3000 v 299.85 H 5698.65 301.352 3000 v 299.85 H 5698.65 301.352 3000 v 299.85 H 5698.65 301.352 3000 v 299.85 H 5698.65 301.352 3000 v 299.85 H 5698.65 301.352 3000 v 299.85 H 5698.65 301.352 3000 v 299.85 H 5698.65 301.352 3000 v 299.85 -299.85 H 301.352 V 49.4766 H 601.199 V 5446.78 H 901.051 V 49.4766 H 1200.9" /><g
             transform="scale(10)"
             id="g62"><text
               id="text82"
               style="font-variant:normal;font-weight:normal;font-size:4.79759979px;font-family:Helvetica;-inkscape-font-specification:Helvetica;writing-mode:lr-tb;fill:#0000ff;fill-opacity:1;fill-rule:nonzero;stroke:none"
               transform="matrix(1,0,0,-1,569.265,335.816)"><tspan
                 id="tspan64"
                 y="0"
                 x="0 2.6674657 5.3349314">100</tspan><tspan
                 id="tspan66"
                 y="-29.9848"
                 x="0 2.6674657 5.3349314">150</tspan><tspan
                 id="tspan68"
                 y="-59.970001"
                 x="0 2.6674657 5.3349314">200</tspan><tspan
                 id="tspan70"
                 y="-89.954803"
                 x="0 2.6674657 5.3349314">250</tspan><tspan
                 id="tspan72"
                 y="-119.94"
                 x="0 2.6674657 5.3349314">300</tspan><tspan
                 id="tspan74"
                 y="-149.9252"
                 x="0 2.6674657 5.3349314">350</tspan><tspan
                 id="tspan76"
                 y="-179.91"
                 x="0 2.6674657 5.3349314">400</tspan><tspan
                 id="tspan78"
                 y="-209.8952"
                 x="0 2.6674657 5.3349314">450</tspan><tspan
                 id="tspan80"
                 y="329.83481"
                 x="-539.72998 -538.13239 -535.4649 -532.79749 -479.75952 -478.16193 -475.49445 -472.827">-450-350</tspan></text>
</g><path
             id="path84"
             style="fill:none;stroke:#0000ff;stroke-width:5.99700022;stroke-linecap:round;stroke-linejoin:round;stroke-miterlimit:10;stroke-dasharray:none;stroke-opacity:1"
             d="M 1200.9,49.4766 V 5446.78 h 299.85 V 49.4766 H 1800.6 V 5446.78 h 299.85 V 49.4766 H 2400.3 V 5446.78 h 299.85 V 49.4766 H 3000 V 5446.78 h 299.85 V 49.4766 H 3599.7 V 5446.78 h 299.85 V 49.4766 H 4199.4 V 5446.78 h 299.85 V 49.4766 H 4799.1 V 5446.78 h 299.85 V 49.4766 H 5398.8 V 5446.78 h 299.85 V 49.4766" /><g
             transform="scale(10)"
             id="g86"><text
               id="text90"
               style="font-variant:normal;font-weight:normal;font-size:4.79759979px;font-family:Helvetica;-inkscape-font-specification:Helvetica;writing-mode:lr-tb;fill:#0000ff;fill-opacity:1;fill-rule:nonzero;stroke:none"
               transform="matrix(1,0,0,-1,149.475,5.98047)"><tspan
                 id="tspan88"
                 y="0"
                 x="0 1.5976008 4.2650666 6.9325318 59.970001 61.5676 64.235069 66.902534 119.94 121.5376 124.20506 179.91 182.57747 239.88048 242.54794 245.21541 299.85049 302.51794 305.18542 359.82047 362.48795 365.15543">-250-150-5050150250350</tspan></text>
</g><path
             id="path92"
             style="fill:none;stroke:#0080ff;stroke-width:5.99700022;stroke-linecap:round;stroke-linejoin:round;stroke-miterlimit:10;stroke-dasharray:none;stroke-opacity:1"
             d="m 5698.65,2748.13 -399.9,123.35 -410.2,82.92 -416.42,41.67 h -418.49 l -416.42,-41.67 -410.2,-82.92 -399.9,-123.35" /><path
             id="path94"
             style="fill:#0080ff;fill-opacity:1;fill-rule:evenodd;stroke:none"
             d="m 2827.12,2748.13 -354.2,109.25 -363.32,73.45 -368.83,36.9 h -370.66 l -368.83,-36.9 -363.319,-73.45 -354.199,-109.25 17.59,2698.65 H 5698.65 V 2748.13 H 2827.12" /><path
             id="path96"
             style="fill:none;stroke:#0080ff;stroke-width:5.99700022;stroke-linecap:round;stroke-linejoin:round;stroke-miterlimit:10;stroke-dasharray:none;stroke-opacity:1"
             d="m 2827.12,2748.13 -354.2,109.25 -363.32,73.45 -368.83,36.9 h -370.66 l -368.83,-36.9 -363.319,-73.45 -354.199,-109.25 17.59,2698.65 H 5698.65 V 2748.13" /><path
             id="path98"
             style="fill:#79bafe;fill-opacity:1;fill-rule:evenodd;stroke:none"
             d="m 3000,2448.28 -152.02,-12.94 -147.66,-38.45 -139.03,-62.84 -126.4,-85.44 -110.16,-105.57 -90.72,-122.67 -68.69,-136.24 -44.68,-145.89 -19.38,-151.34 6.47,-152.43 32.15,-149.15 56.89,-141.57 80,-129.93 100.8,-114.531 118.7,-95.848 133.2,-74.41 143.86,-50.828 150.38,-25.785 h 152.58 l 150.38,25.785 143.86,50.828 133.2,74.41 118.7,95.848 100.8,114.531 80,129.93 56.89,141.57 32.15,149.15 6.47,152.43 -19.38,151.34 -44.68,145.89 -68.69,136.24 -90.72,122.67 -110.15,105.57 -126.41,85.44 -139.03,62.84 -147.66,38.45 -152.02,12.94 v 0" /><path
             id="path100"
             style="fill:none;stroke:#79bafe;stroke-width:5.99700022;stroke-linecap:round;stroke-linejoin:round;stroke-miterlimit:10;stroke-dasharray:none;stroke-opacity:1"
             d="m 3000,2448.28 -152.02,-12.94 -147.66,-38.45 -139.03,-62.84 -126.4,-85.44 -110.16,-105.57 -90.72,-122.67 -68.69,-136.24 -44.68,-145.89 -19.38,-151.34 6.47,-152.43 32.15,-149.15 56.89,-141.57 80,-129.93 100.8,-114.531 118.7,-95.848 133.2,-74.41 143.86,-50.828 150.38,-25.785 h 152.58 l 150.38,25.785 143.86,50.828 133.2,74.41 118.7,95.848 100.8,114.531 80,129.93 56.89,141.57 32.15,149.15 6.47,152.43 -19.38,151.34 -44.68,145.89 -68.69,136.24 -90.72,122.67 -110.15,105.57 -126.41,85.44 -139.03,62.84 -147.66,38.45 -152.02,12.94 v -59.98" /><path
             id="path102"
             style="fill:#79bafe;fill-opacity:1;fill-rule:evenodd;stroke:none"
             d="m 3000,2388.3 137.15,14.42 131.16,42.62 119.44,68.95 102.48,92.28 81.06,111.57 56.09,125.99 28.67,134.89 v 137.91 l -28.67,134.89 -56.09,125.99 -81.06,111.57 -102.48,92.28 -119.44,68.95 -131.16,42.62 -137.15,14.41 -137.15,-14.41 -131.16,-42.62 -119.44,-68.95 -102.48,-92.28 -81.06,-111.57 -56.09,-125.99 -28.67,-134.89 v -137.91 l 28.67,-134.89 56.09,-125.99 81.06,-111.57 102.48,-92.28 119.44,-68.95 131.16,-42.62 137.15,-14.42 v 0" /><path
             id="path104"
             style="fill:none;stroke:#79bafe;stroke-width:5.99700022;stroke-linecap:round;stroke-linejoin:round;stroke-miterlimit:10;stroke-dasharray:none;stroke-opacity:1"
             d="m 3000,2388.3 137.15,14.42 131.16,42.62 119.44,68.95 102.48,92.28 81.06,111.57 56.09,125.99 28.67,134.89 v 137.91 l -28.67,134.89 -56.09,125.99 -81.06,111.57 -102.48,92.28 -119.44,68.95 -131.16,42.62 -137.15,14.41 -137.15,-14.41 -131.16,-42.62 -119.44,-68.95 -102.48,-92.28 -81.06,-111.57 -56.09,-125.99 -28.67,-134.89 v -137.91 l 28.67,-134.89 56.09,-125.99 81.06,-111.57 102.48,-92.28 119.44,-68.95 131.16,-42.62 137.15,-14.42 v 1259.38" /><path
             id="path106"
             style="fill:#79bafe;fill-opacity:1;fill-rule:evenodd;stroke:none"
             d="m 3000,3647.68 113.26,15.56 104.86,45.55 88.68,72.15 65.93,93.4 38.28,107.72 7.8,114.05 -23.26,111.94 -52.59,101.5 -78.03,83.55 -97.68,59.4 -110.09,30.85 h -114.32 l -110.09,-30.85 -97.68,-59.4 -78.03,-83.55 -52.59,-101.5 -23.26,-111.94 7.8,-114.05 38.28,-107.72 65.93,-93.4 88.68,-72.15 104.86,-45.55 113.26,-15.56 v 0" /><path
             id="path108"
             style="fill:none;stroke:#79bafe;stroke-width:5.99700022;stroke-linecap:round;stroke-linejoin:round;stroke-miterlimit:10;stroke-dasharray:none;stroke-opacity:1"
             d="m 3000,3647.68 113.26,15.56 104.86,45.55 88.68,72.15 65.93,93.4 38.28,107.72 7.8,114.05 -23.26,111.94 -52.59,101.5 -78.03,83.55 -97.68,59.4 -110.09,30.85 h -114.32 l -110.09,-30.85 -97.68,-59.4 -78.03,-83.55 -52.59,-101.5 -23.26,-111.94 7.8,-114.05 38.28,-107.72 65.93,-93.4 88.68,-72.15 104.86,-45.55 113.26,-15.56 -149.93,599.7" /><path
             id="path110"
             style="fill:#000000;fill-opacity:1;fill-rule:evenodd;stroke:none"
             d="m 2850.07,4247.38 19.51,4.8 15.05,13.33 7.12,18.79 -2.42,19.94 -11.42,16.54 -17.79,9.33 h -20.09 l -17.79,-9.33 -11.42,-16.54 -2.42,-19.94 7.13,-18.79 15.04,-13.33 19.5,-4.8" /><path
             id="path112"
             style="fill:none;stroke:#000000;stroke-width:5.99700022;stroke-linecap:round;stroke-linejoin:round;stroke-miterlimit:10;stroke-dasharray:none;stroke-opacity:1"
             d="m 2850.07,4247.38 19.51,4.8 15.05,13.33 7.12,18.79 -2.42,19.94 -11.42,16.54 -17.79,9.33 h -20.09 l -17.79,-9.33 -11.42,-16.54 -2.42,-19.94 7.13,-18.79 15.04,-13.33 19.5,-4.8" /><path
             id="path114"
             style="fill:#000000;fill-opacity:1;fill-rule:evenodd;stroke:none"
             d="m 3149.93,4247.38 19.5,4.8 15.04,13.33 7.13,18.79 -2.42,19.94 -11.42,16.54 -17.79,9.33 h -20.09 l -17.79,-9.33 -11.41,-16.54 -2.43,-19.94 7.13,-18.79 15.04,-13.33 19.51,-4.8 v 0" /><path
             id="path116"
             style="fill:none;stroke:#000000;stroke-width:5.99700022;stroke-linecap:round;stroke-linejoin:round;stroke-miterlimit:10;stroke-dasharray:none;stroke-opacity:1"
             d="m 3149.93,4247.38 19.5,4.8 15.04,13.33 7.13,18.79 -2.42,19.94 -11.42,16.54 -17.79,9.33 h -20.09 l -17.79,-9.33 -11.41,-16.54 -2.43,-19.94 7.13,-18.79 15.04,-13.33 19.51,-4.8" /><path
             id="path118"
             style="fill:#000000;fill-opacity:1;fill-rule:evenodd;stroke:none"
             d="m 3149.93,4247.38 -107.95,59.97 23.99,-59.97 -23.99,-59.97 107.95,59.97" /><path
             id="path120"
             style="fill:none;stroke:#000000;stroke-width:5.99700022;stroke-linecap:round;stroke-linejoin:round;stroke-miterlimit:10;stroke-dasharray:none;stroke-opacity:1"
             d="m 3149.93,4247.38 -107.95,59.97 23.99,-59.97 -23.99,-59.97 107.95,59.97" /></g></g></g></g></svg>