<?xml version="1.0" encoding="UTF-8" standalone="no"?>
<svg
   xmlns:dc="http://purl.org/dc/elements/1.1/"
   xmlns:cc="http://creativecommons.org/ns#"
   xmlns:rdf="http://www.w3.org/1999/02/22-rdf-syntax-ns#"
   xmlns:svg="http://www.w3.org/2000/svg"
   xmlns="http://www.w3.org/2000/svg"
   viewBox="0 0 862.66669 864"
   height="864"
   width="862.66669"
   xml:space="preserve"
   id="svg2"
   version="1.1"><metadata
     id="metadata8"><rdf:RDF><cc:Work
         rdf:about=""><dc:format>image/svg+xml</dc:format><dc:type
           rdf:resource="http://purl.org/dc/dcmitype/StillImage" /></cc:Work></rdf:RDF></metadata><defs
     id="defs6"><clipPath
       id="clipPath20"
       clipPathUnits="userSpaceOnUse"><path
         id="path18"
         d="M 0,7 V 6473 H 6463 V 7 Z" /></clipPath></defs><g
     transform="matrix(1.3333333,0,0,-1.3333333,0,864)"
     id="g10"><g
       transform="scale(0.1)"
       id="g12"><g
         id="g14"><g
           clip-path="url(#clipPath20)"
           id="g16"><path
             id="path22"
             style="fill:none;stroke:#000080;stroke-width:23.98800087;stroke-linecap:round;stroke-linejoin:round;stroke-miterlimit:10;stroke-dasharray:none;stroke-opacity:1"
             d="M 249.492,3222.01 H 6246.49" /><path
             id="path24"
             style="fill:#000080;fill-opacity:1;fill-rule:evenodd;stroke:none"
             d="m 6246.49,3222.01 -53.97,29.99 11.99,-29.99 -11.99,-29.99 53.97,29.99" /><path
             id="path26"
             style="fill:none;stroke:#000080;stroke-width:5.99700022;stroke-linecap:round;stroke-linejoin:round;stroke-miterlimit:10;stroke-dasharray:none;stroke-opacity:1"
             d="m 6246.49,3222.01 -53.97,29.99 11.99,-29.99 -11.99,-29.99 53.97,29.99" /><g
             transform="scale(10)"
             id="g28"><text
               id="text32"
               style="font-variant:normal;font-weight:normal;font-size:4.79759979px;font-family:Helvetica;-inkscape-font-specification:Helvetica;writing-mode:lr-tb;fill:#000080;fill-opacity:1;fill-rule:nonzero;stroke:none"
               transform="matrix(1,0,0,-1,624.05,308.241)"><tspan
                 id="tspan30"
                 y="0"
                 x="0">X</tspan></text>
</g><path
             id="path34"
             style="fill:none;stroke:#000080;stroke-width:23.98800087;stroke-linecap:round;stroke-linejoin:round;stroke-miterlimit:10;stroke-dasharray:none;stroke-opacity:1"
             d="M 3247.99,223.508 V 6220.51" /><path
             id="path36"
             style="fill:#000080;fill-opacity:1;fill-rule:evenodd;stroke:none"
             d="m 3247.99,6220.51 -29.98,-53.97 29.98,11.99 29.99,-11.99 -29.99,53.97" /><path
             id="path38"
             style="fill:none;stroke:#000080;stroke-width:5.99700022;stroke-linecap:round;stroke-linejoin:round;stroke-miterlimit:10;stroke-dasharray:none;stroke-opacity:1"
             d="m 3247.99,6220.51 -29.98,-53.97 29.98,11.99 29.99,-11.99 -29.99,53.97" /><g
             transform="scale(10)"
             id="g40"><text
               id="text46"
               style="font-variant:normal;font-weight:normal;font-size:4.79759979px;font-family:Helvetica;-inkscape-font-specification:Helvetica;writing-mode:lr-tb;fill:#000080;fill-opacity:1;fill-rule:nonzero;stroke:none"
               transform="matrix(1,0,0,-1,330.196,623.084)"><tspan
                 id="tspan42"
                 y="0"
                 x="0">Y</tspan><tspan
                 id="tspan44"
                 y="314.84201"
                 x="0 2.6674657 4.0011983 5.3349314">0, 0</tspan></text>
</g><path
             id="path48"
             style="fill:none;stroke:#0000ff;stroke-width:5.99700022;stroke-linecap:round;stroke-linejoin:round;stroke-miterlimit:10;stroke-dasharray:none;stroke-opacity:1"
             d="M 309.461,3701.77 H 6186.52" /><path
             id="path50"
             style="fill:none;stroke:#0000ff;stroke-width:5.99700022;stroke-linecap:round;stroke-linejoin:round;stroke-miterlimit:10;stroke-dasharray:none;stroke-opacity:1"
             d="M 309.461,2742.25 H 6186.52" /><path
             id="path52"
             style="fill:none;stroke:#0000ff;stroke-width:5.99700022;stroke-linecap:round;stroke-linejoin:round;stroke-miterlimit:10;stroke-dasharray:none;stroke-opacity:1"
             d="M 3727.75,283.48 V 6160.54" /><path
             id="path54"
             style="fill:none;stroke:#0000ff;stroke-width:5.99700022;stroke-linecap:round;stroke-linejoin:round;stroke-miterlimit:10;stroke-dasharray:none;stroke-opacity:1"
             d="M 2768.23,283.48 V 6160.54" /><path
             id="path56"
             style="fill:none;stroke:#0000ff;stroke-width:5.99700022;stroke-linecap:round;stroke-linejoin:round;stroke-miterlimit:10;stroke-dasharray:none;stroke-opacity:1"
             d="M 309.461,4181.53 H 6186.52" /><path
             id="path58"
             style="fill:none;stroke:#0000ff;stroke-width:5.99700022;stroke-linecap:round;stroke-linejoin:round;stroke-miterlimit:10;stroke-dasharray:none;stroke-opacity:1"
             d="M 309.461,2262.49 H 6186.52" /><path
             id="path60"
             style="fill:none;stroke:#0000ff;stroke-width:5.99700022;stroke-linecap:round;stroke-linejoin:round;stroke-miterlimit:10;stroke-dasharray:none;stroke-opacity:1"
             d="M 4207.51,283.48 V 6160.54" /><path
             id="path62"
             style="fill:none;stroke:#0000ff;stroke-width:5.99700022;stroke-linecap:round;stroke-linejoin:round;stroke-miterlimit:10;stroke-dasharray:none;stroke-opacity:1"
             d="M 2288.47,283.48 V 6160.54" /><path
             id="path64"
             style="fill:none;stroke:#0000ff;stroke-width:5.99700022;stroke-linecap:round;stroke-linejoin:round;stroke-miterlimit:10;stroke-dasharray:none;stroke-opacity:1"
             d="M 309.461,4661.29 H 6186.52" /><path
             id="path66"
             style="fill:none;stroke:#0000ff;stroke-width:5.99700022;stroke-linecap:round;stroke-linejoin:round;stroke-miterlimit:10;stroke-dasharray:none;stroke-opacity:1"
             d="M 309.461,1782.73 H 6186.52" /><path
             id="path68"
             style="fill:none;stroke:#0000ff;stroke-width:5.99700022;stroke-linecap:round;stroke-linejoin:round;stroke-miterlimit:10;stroke-dasharray:none;stroke-opacity:1"
             d="M 4687.27,283.48 V 6160.54" /><path
             id="path70"
             style="fill:none;stroke:#0000ff;stroke-width:5.99700022;stroke-linecap:round;stroke-linejoin:round;stroke-miterlimit:10;stroke-dasharray:none;stroke-opacity:1"
             d="M 1808.71,283.48 V 6160.54" /><path
             id="path72"
             style="fill:none;stroke:#0000ff;stroke-width:5.99700022;stroke-linecap:round;stroke-linejoin:round;stroke-miterlimit:10;stroke-dasharray:none;stroke-opacity:1"
             d="M 309.461,5141.05 H 6186.52" /><path
             id="path74"
             style="fill:none;stroke:#0000ff;stroke-width:5.99700022;stroke-linecap:round;stroke-linejoin:round;stroke-miterlimit:10;stroke-dasharray:none;stroke-opacity:1"
             d="M 309.461,1302.97 H 6186.52" /><path
             id="path76"
             style="fill:none;stroke:#0000ff;stroke-width:5.99700022;stroke-linecap:round;stroke-linejoin:round;stroke-miterlimit:10;stroke-dasharray:none;stroke-opacity:1"
             d="M 5167.03,283.48 V 6160.54" /><path
             id="path78"
             style="fill:none;stroke:#0000ff;stroke-width:5.99700022;stroke-linecap:round;stroke-linejoin:round;stroke-miterlimit:10;stroke-dasharray:none;stroke-opacity:1"
             d="M 1328.95,283.48 V 6160.54" /><path
             id="path80"
             style="fill:none;stroke:#0000ff;stroke-width:5.99700022;stroke-linecap:round;stroke-linejoin:round;stroke-miterlimit:10;stroke-dasharray:none;stroke-opacity:1"
             d="M 309.461,5620.81 H 6186.52" /><path
             id="path82"
             style="fill:none;stroke:#0000ff;stroke-width:5.99700022;stroke-linecap:round;stroke-linejoin:round;stroke-miterlimit:10;stroke-dasharray:none;stroke-opacity:1"
             d="M 309.461,823.211 H 6186.52" /><path
             id="path84"
             style="fill:none;stroke:#0000ff;stroke-width:5.99700022;stroke-linecap:round;stroke-linejoin:round;stroke-miterlimit:10;stroke-dasharray:none;stroke-opacity:1"
             d="M 5646.79,283.48 V 6160.54" /><path
             id="path86"
             style="fill:none;stroke:#0000ff;stroke-width:5.99700022;stroke-linecap:round;stroke-linejoin:round;stroke-miterlimit:10;stroke-dasharray:none;stroke-opacity:1"
             d="M 849.191,283.48 V 6160.54" /><path
             id="path88"
             style="fill:none;stroke:#0000ff;stroke-width:5.99700022;stroke-linecap:round;stroke-linejoin:round;stroke-miterlimit:10;stroke-dasharray:none;stroke-opacity:1"
             d="M 309.461,6100.57 H 6186.52" /><path
             id="path90"
             style="fill:none;stroke:#0000ff;stroke-width:5.99700022;stroke-linecap:round;stroke-linejoin:round;stroke-miterlimit:10;stroke-dasharray:none;stroke-opacity:1"
             d="M 309.461,343.449 H 6186.52" /><path
             id="path92"
             style="fill:none;stroke:#0000ff;stroke-width:5.99700022;stroke-linecap:round;stroke-linejoin:round;stroke-miterlimit:10;stroke-dasharray:none;stroke-opacity:1"
             d="M 6126.55,283.48 V 6160.54" /><path
             id="path94"
             style="fill:none;stroke:#0000ff;stroke-width:5.99700022;stroke-linecap:round;stroke-linejoin:round;stroke-miterlimit:10;stroke-dasharray:none;stroke-opacity:1"
             d="M 369.43,283.48 V 6160.54" /><path
             id="path96"
             style="fill:none;stroke:#87ceeb;stroke-width:23.98800087;stroke-linecap:round;stroke-linejoin:round;stroke-miterlimit:10;stroke-dasharray:none;stroke-opacity:1"
             d="m 3247.99,1782.73 175.89,10.79 173.26,32.2 168.02,53.14 160.27,73.27 150.11,92.3 137.71,109.96 123.24,125.97 106.92,140.09 89,152.09 69.74,161.84 49.44,169.14 28.4,173.92 6.94,176.09 -14.64,175.61 -35.99,172.51 -56.8,166.82 -76.77,158.63 -95.57,148.05 -112.95,135.27 -128.64,120.45 -142.39,103.83 -154.01,85.64 -163.32,66.18 -170.19,45.73 -174.5,24.58 -176.2,3.08 -175.25,-18.48 -171.68,-39.76 -165.53,-60.44 -156.91,-80.22 -145.93,-98.8 -132.75,-115.88 -117.61,-131.24 -100.68,-144.63 -82.25,-155.85 -62.59,-164.73 -41.99,-171.15 -20.76,-175 0.79,-176.22 22.31,-174.81 43.51,-170.77 64.05,-164.16" /><path
             id="path98"
             style="fill:none;stroke:#87ceeb;stroke-width:23.98800087;stroke-linecap:round;stroke-linejoin:round;stroke-miterlimit:10;stroke-dasharray:none;stroke-opacity:1"
             d="m 1941.69,2617.77 83.64,-155.12 101.96,-143.73 118.77,-130.19 133.78,-114.7 146.8,-97.49 157.62,-78.82 166.06,-58.96 172.03,-38.23 175.41,-16.92" /><path
             id="path100"
             style="fill:#000080;fill-opacity:1;fill-rule:evenodd;stroke:none"
             d="m 3197.76,1783.61 -52.89,31.85 10.94,-30.39 -13.04,-29.55 54.99,28.09" /><path
             id="path102"
             style="fill:none;stroke:#87ceeb;stroke-width:5.99700022;stroke-linecap:round;stroke-linejoin:round;stroke-miterlimit:10;stroke-dasharray:none;stroke-opacity:1"
             d="m 3197.76,1783.61 -52.89,31.85 10.94,-30.39 -13.04,-29.55 54.99,28.09" /><g
             transform="scale(10)"
             id="g104"><text
               id="text108"
               style="font-variant:normal;font-weight:normal;font-size:5.99700022px;font-family:Helvetica;-inkscape-font-specification:Helvetica;writing-mode:lr-tb;fill:#87ceeb;fill-opacity:1;fill-rule:nonzero;stroke:none"
               transform="matrix(1,0,0,-1,322.173,179.556)"><tspan
                 id="tspan106"
                 y="0"
                 x="0 1.9970011 5.3313332 8.6656647 11.999997">-360°</tspan></text>
</g><path
             id="path110"
             style="fill:none;stroke:#ff0000;stroke-width:17.99099922;stroke-linecap:round;stroke-linejoin:round;stroke-miterlimit:10;stroke-dasharray:none;stroke-opacity:1"
             d="m 3247.99,3222.01 1454.2,-839.58" /><path
             id="path112"
             style="fill:#000080;fill-opacity:1;fill-rule:evenodd;stroke:none"
             d="m 4702.19,2382.43 -31.75,52.95 -4.61,-31.96 -25.38,-19.97 61.74,-1.02" /><path
             id="path114"
             style="fill:none;stroke:#ff0000;stroke-width:5.99700022;stroke-linecap:round;stroke-linejoin:round;stroke-miterlimit:10;stroke-dasharray:none;stroke-opacity:1"
             d="m 4702.19,2382.43 -31.75,52.95 -4.61,-31.96 -25.38,-19.97 61.74,-1.02" /><g
             transform="scale(10)"
             id="g116"><text
               id="text120"
               style="font-variant:normal;font-weight:normal;font-size:5.99700022px;font-family:Helvetica;-inkscape-font-specification:Helvetica;writing-mode:lr-tb;fill:#ff0000;fill-opacity:1;fill-rule:nonzero;stroke:none"
               transform="matrix(1,0,0,-1,475.254,237.492)"><tspan
                 id="tspan118"
                 y="0"
                 x="0 1.9970011 5.3313332 8.6656647">-30°</tspan></text>
</g><path
             id="path122"
             style="fill:none;stroke:#008000;stroke-width:17.99099922;stroke-linecap:round;stroke-linejoin:round;stroke-miterlimit:10;stroke-dasharray:none;stroke-opacity:1"
             d="m 3247.99,3222.01 959.52,1661.94" /><path
             id="path124"
             style="fill:#000080;fill-opacity:1;fill-rule:evenodd;stroke:none"
             d="m 4207.51,4883.95 -52.95,-31.75 31.96,-4.61 19.97,-25.38 1.02,61.74" /><path
             id="path126"
             style="fill:none;stroke:#008000;stroke-width:5.99700022;stroke-linecap:round;stroke-linejoin:round;stroke-miterlimit:10;stroke-dasharray:none;stroke-opacity:1"
             d="m 4207.51,4883.95 -52.95,-31.75 31.96,-4.61 19.97,-25.38 1.02,61.74" /><g
             transform="scale(10)"
             id="g128"><text
               id="text132"
               style="font-variant:normal;font-weight:normal;font-size:5.99700022px;font-family:Helvetica;-inkscape-font-specification:Helvetica;writing-mode:lr-tb;fill:#008000;fill-opacity:1;fill-rule:nonzero;stroke:none"
               transform="matrix(1,0,0,-1,420.152,489.695)"><tspan
                 id="tspan130"
                 y="0"
                 x="0 3.334332 6.668664">60°</tspan></text>
</g><path
             id="path134"
             style="fill:none;stroke:#d2691e;stroke-width:17.99099922;stroke-linecap:round;stroke-linejoin:round;stroke-miterlimit:10;stroke-dasharray:none;stroke-opacity:1"
             d="M 3247.99,3222.01 1860.27,4875.84" /><path
             id="path136"
             style="fill:#000080;fill-opacity:1;fill-rule:evenodd;stroke:none"
             d="m 1860.27,4875.84 11.72,-60.62 15.26,28.46 30.68,10.09 -57.66,22.07" /><path
             id="path138"
             style="fill:none;stroke:#d2691e;stroke-width:5.99700022;stroke-linecap:round;stroke-linejoin:round;stroke-miterlimit:10;stroke-dasharray:none;stroke-opacity:1"
             d="m 1860.27,4875.84 11.72,-60.62 15.26,28.46 30.68,10.09 -57.66,22.07" /><g
             transform="scale(10)"
             id="g140"><text
               id="text144"
               style="font-variant:normal;font-weight:normal;font-size:5.99700022px;font-family:Helvetica;-inkscape-font-specification:Helvetica;writing-mode:lr-tb;fill:#d2691e;fill-opacity:1;fill-rule:nonzero;stroke:none"
               transform="matrix(1,0,0,-1,185.427,488.884)"><tspan
                 id="tspan142"
                 y="0"
                 x="0 3.334332 6.668664 10.002996">130°</tspan></text>
</g><path
             id="path146"
             style="fill:none;stroke:#ee82ee;stroke-width:17.99099922;stroke-linecap:round;stroke-linejoin:round;stroke-miterlimit:10;stroke-dasharray:none;stroke-opacity:1"
             d="M 3247.99,3222.01 993.855,2401.57" /><path
             id="path148"
             style="fill:#000080;fill-opacity:1;fill-rule:evenodd;stroke:none"
             d="m 993.855,2401.57 60.975,-9.71 -21.53,24.07 1.02,32.28 -40.465,-46.64" /><path
             id="path150"
             style="fill:none;stroke:#ee82ee;stroke-width:5.99700022;stroke-linecap:round;stroke-linejoin:round;stroke-miterlimit:10;stroke-dasharray:none;stroke-opacity:1"
             d="m 993.855,2401.57 60.975,-9.71 -21.53,24.07 1.02,32.28 -40.465,-46.64" /><g
             transform="scale(10)"
             id="g152"><text
               id="text156"
               style="font-variant:normal;font-weight:normal;font-size:5.99700022px;font-family:Helvetica;-inkscape-font-specification:Helvetica;writing-mode:lr-tb;fill:#ee82ee;fill-opacity:1;fill-rule:nonzero;stroke:none"
               transform="matrix(1,0,0,-1,77.7965,241.457)"><tspan
                 id="tspan154"
                 y="0"
                 x="0 1.9970011 5.3313332 8.6656647 11.999997">-160°</tspan></text>
</g><path
             id="path158"
             style="fill:none;stroke:#800080;stroke-width:17.99099922;stroke-linecap:round;stroke-linejoin:round;stroke-miterlimit:10;stroke-dasharray:none;stroke-opacity:1"
             d="M 3247.99,3222.01 4150.47,742.461" /><path
             id="path160"
             style="fill:#000080;fill-opacity:1;fill-rule:evenodd;stroke:none"
             d="m 4150.47,742.461 9.72,60.973 -24.07,-21.524 -32.28,1.012 46.63,-40.461" /><path
             id="path162"
             style="fill:none;stroke:#800080;stroke-width:5.99700022;stroke-linecap:round;stroke-linejoin:round;stroke-miterlimit:10;stroke-dasharray:none;stroke-opacity:1"
             d="m 4150.47,742.461 9.72,60.973 -24.07,-21.524 -32.28,1.012 46.63,-40.461" /><g
             transform="scale(10)"
             id="g164"><text
               id="text168"
               style="font-variant:normal;font-weight:normal;font-size:5.99700022px;font-family:Helvetica;-inkscape-font-specification:Helvetica;writing-mode:lr-tb;fill:#800080;fill-opacity:1;fill-rule:nonzero;stroke:none"
               transform="matrix(1,0,0,-1,417.524,67.093)"><tspan
                 id="tspan166"
                 y="0"
                 x="0 3.334332 6.668664 10.002996">290°</tspan></text>
</g><path
             id="path170"
             style="fill:#ff1493;fill-opacity:1;fill-rule:evenodd;stroke:none"
             d="m 1272.6,802.699 9.1,-16.41 13.72,-12.809 16.99,-7.921 18.63,-2.282 18.42,3.578 16.41,9.098 12.81,13.727 7.92,16.988 2.28,18.633 -3.58,18.418 -9.09,16.41 -13.73,12.809 -16.99,7.921 -18.63,2.282 -18.42,-3.578 -16.41,-9.098 -12.81,-13.727 -7.92,-16.988 -2.28,-18.633 3.58,-18.418" /><path
             id="path172"
             style="fill:none;stroke:#ff1493;stroke-width:5.99700022;stroke-linecap:round;stroke-linejoin:round;stroke-miterlimit:10;stroke-dasharray:none;stroke-opacity:1"
             d="m 1272.6,802.699 9.1,-16.41 13.72,-12.809 16.99,-7.921 18.63,-2.282 18.42,3.578 16.41,9.098 12.81,13.727 7.92,16.988 2.28,18.633 -3.58,18.418 -9.09,16.41 -13.73,12.809 -16.99,7.921 -18.63,2.282 -18.42,-3.578 -16.41,-9.098 -12.81,-13.727 -7.92,-16.988 -2.28,-18.633 3.58,-18.418" /><g
             transform="scale(10)"
             id="g174"><text
               id="text178"
               style="font-variant:normal;font-weight:normal;font-size:5.99700022px;font-family:Helvetica;-inkscape-font-specification:Helvetica;writing-mode:lr-tb;fill:#ff1493;fill-opacity:1;fill-rule:nonzero;stroke:none"
               transform="matrix(1,0,0,-1,99.6848,68.4145)"><tspan
                 id="tspan176"
                 y="0"
                 x="0 1.9970011 5.3313332 6.9984989 8.6656647 10.662666">-4, -5</tspan></text>
</g></g></g></g></g></svg>