<?xml version="1.0" encoding="UTF-8" standalone="no"?>
<!-- Created with Inkscape (http://www.inkscape.org/) -->

<svg
   version="1.1"
   id="svg2"
   width="862.66669"
   height="864"
   viewBox="0 0 862.66669 864"
   sodipodi:docname="coord.eps"
   xmlns:inkscape="http://www.inkscape.org/namespaces/inkscape"
   xmlns:sodipodi="http://sodipodi.sourceforge.net/DTD/sodipodi-0.dtd"
   xmlns="http://www.w3.org/2000/svg"
   xmlns:svg="http://www.w3.org/2000/svg">
  <defs
     id="defs6">
    <clipPath
       clipPathUnits="userSpaceOnUse"
       id="clipPath18">
      <path
         d="M 0,7 V 6473 H 6463 V 7 Z"
         id="path16" />
    </clipPath>
  </defs>
  <sodipodi:namedview
     id="namedview4"
     pagecolor="#ffffff"
     bordercolor="#000000"
     borderopacity="0.25"
     inkscape:showpageshadow="2"
     inkscape:pageopacity="0.0"
     inkscape:pagecheckerboard="0"
     inkscape:deskcolor="#d1d1d1" />
  <g
     id="g8"
     inkscape:groupmode="layer"
     inkscape:label="ink_ext_XXXXXX"
     transform="matrix(1.3333333,0,0,-1.3333333,0,864)">
    <g
       id="g10"
       transform="scale(0.1)">
      <g
         id="g12">
        <g
           id="g14"
           clip-path="url(#clipPath18)">
          <path
             d="M 3247.99,3222.01 H 5646.79 849.191 3247.99 V 5620.81 823.211"
             style="fill:none;stroke:#000000;stroke-width:17.991;stroke-linecap:round;stroke-linejoin:round;stroke-miterlimit:10;stroke-dasharray:none;stroke-opacity:1"
             id="path20" />
          <path
             d="m 5646.79,3222.01 -53.97,29.99 11.99,-29.99 -11.99,-29.99 53.97,29.99"
             style="fill:#000000;fill-opacity:1;fill-rule:evenodd;stroke:none"
             id="path22" />
          <path
             d="m 5646.79,3222.01 -53.97,29.99 11.99,-29.99 -11.99,-29.99 53.97,29.99"
             style="fill:none;stroke:#000000;stroke-width:5.997;stroke-linecap:round;stroke-linejoin:round;stroke-miterlimit:10;stroke-dasharray:none;stroke-opacity:1"
             id="path24" />
          <path
             d="m 3247.99,5620.81 -29.98,-53.97 29.98,11.99 29.99,-11.99 -29.99,53.97"
             style="fill:#000000;fill-opacity:1;fill-rule:evenodd;stroke:none"
             id="path26" />
          <path
             d="m 3247.99,5620.81 -29.98,-53.97 29.98,11.99 29.99,-11.99 -29.99,53.97"
             style="fill:none;stroke:#000000;stroke-width:5.997;stroke-linecap:round;stroke-linejoin:round;stroke-miterlimit:10;stroke-dasharray:none;stroke-opacity:1"
             id="path28" />
          <path
             d="M 3247.99,823.211 V 2022.61 H 5646.79 849.191 3247.99"
             style="fill:none;stroke:#0000ff;stroke-width:5.997;stroke-linecap:round;stroke-linejoin:round;stroke-miterlimit:10;stroke-dasharray:none;stroke-opacity:1"
             id="path30" />
          <path
             d="M 3247.99,823.211 H 849.191 5646.79 3247.99"
             style="fill:none;stroke:#0000ff;stroke-width:5.997;stroke-linecap:round;stroke-linejoin:round;stroke-miterlimit:10;stroke-dasharray:none;stroke-opacity:1"
             id="path32" />
          <path
             d="M 3247.99,4421.41 H 5646.79 849.191 3247.99 v 1199.4 H 5646.79 849.191 V 823.211 H 2048.59 V 5620.81 h 2398.8 V 823.211 h 1199.4 V 5620.81"
             style="fill:none;stroke:#0000ff;stroke-width:5.997;stroke-linecap:round;stroke-linejoin:round;stroke-miterlimit:10;stroke-dasharray:none;stroke-opacity:1"
             id="path34" />
          <path
             d="m 5646.79,5620.81 -29.99,-53.97 29.99,11.99 29.99,-11.99 -29.99,53.97"
             style="fill:#0000ff;fill-opacity:1;fill-rule:evenodd;stroke:none"
             id="path36" />
          <path
             d="m 5646.79,5620.81 -29.99,-53.97 29.99,11.99 29.99,-11.99 -29.99,53.97"
             style="fill:none;stroke:#0000ff;stroke-width:5.997;stroke-linecap:round;stroke-linejoin:round;stroke-miterlimit:10;stroke-dasharray:none;stroke-opacity:1"
             id="path38" />
        </g>
      </g>
    </g>
  </g>
</svg>
