<svg width="718" xmlns="http://www.w3.org/2000/svg" height="482" fill="none"><defs><clipPath id="a" class="frame-clip frame-clip-def"><rect rx="0" ry="0" width="718" height="482" transform="matrix(1.000000, 0.000000, 0.000000, 1.000000, 0.000000, 0.000000)"/></clipPath></defs><g clip-path="url(#a)"><g class="fills"><rect width="718" height="482" class="frame-background" transform="matrix(1.000000, 0.000000, 0.000000, 1.000000, 0.000000, 0.000000)" style="fill: rgb(194, 233, 255); fill-opacity: 1;" ry="0" rx="0"/></g><g class="frame-children"><path d="M102.000,94.000L253.000,93.000" class="fills"/><g class="strokes"><path d="M102.000,94.000L253.000,93.000" style="fill: none; stroke-width: 4; stroke: rgb(255, 206, 0); stroke-opacity: 1;" class="stroke-shape"/></g><path d="M-49.000,94.000L102.000,93.000" class="fills"/><g class="strokes"><path d="M-49.000,94.000L102.000,93.000" style="fill: none; stroke-width: 4; stroke: rgb(255, 206, 0); stroke-opacity: 1;" class="stroke-shape"/></g><path d="M101.000,94.000L102.000,245.000" class="fills"/><g class="strokes"><path d="M101.000,94.000L102.000,245.000" style="fill: none; stroke-width: 4; stroke: rgb(255, 206, 0); stroke-opacity: 1;" class="stroke-shape"/></g><path d="M101.000,-57.000L102.000,94.000" class="fills"/><g class="strokes"><path d="M101.000,-57.000L102.000,94.000" style="fill: none; stroke-width: 4; stroke: rgb(255, 206, 0); stroke-opacity: 1;" class="stroke-shape"/></g><path d="M102.000,94.000L209.480,200.066" class="fills"/><g class="strokes"><path d="M102.000,94.000L209.480,200.066" style="fill: none; stroke-width: 4; stroke: rgb(255, 206, 0); stroke-opacity: 1;" class="stroke-shape"/></g><path d="M-4.773,-12.773L102.707,93.293" class="fills"/><g class="strokes"><path d="M-4.773,-12.773L102.707,93.293" style="fill: none; stroke-width: 4; stroke: rgb(255, 206, 0); stroke-opacity: 1;" class="stroke-shape"/></g><path d="M101.293,93.293L-4.773,200.773" class="fills"/><g class="strokes"><path d="M101.293,93.293L-4.773,200.773" style="fill: none; stroke-width: 4; stroke: rgb(255, 206, 0); stroke-opacity: 1;" class="stroke-shape"/></g><path d="M208.066,-13.480L102.000,94.000" class="fills"/><g class="strokes"><path d="M208.066,-13.480L102.000,94.000" style="fill: none; stroke-width: 4; stroke: rgb(255, 206, 0); stroke-opacity: 1;" class="stroke-shape"/></g><path d="M102.000,94.000L241.888,150.861" class="fills"/><g class="strokes"><path d="M102.000,94.000L241.888,150.861" style="fill: none; stroke-width: 4; stroke: rgb(255, 206, 0); stroke-opacity: 1;" class="stroke-shape"/></g><path d="M-37.506,36.215L102.383,93.076" class="fills"/><g class="strokes"><path d="M-37.506,36.215L102.383,93.076" style="fill: none; stroke-width: 4; stroke: rgb(255, 206, 0); stroke-opacity: 1;" class="stroke-shape"/></g><path d="M101.076,93.617L44.215,233.506" class="fills"/><g class="strokes"><path d="M101.076,93.617L44.215,233.506" style="fill: none; stroke-width: 4; stroke: rgb(255, 206, 0); stroke-opacity: 1;" class="stroke-shape"/></g><path d="M158.861,-45.888L102.000,94.000" class="fills"/><g class="strokes"><path d="M158.861,-45.888L102.000,94.000" style="fill: none; stroke-width: 4; stroke: rgb(255, 206, 0); stroke-opacity: 1;" class="stroke-shape"/></g><path d="M102.000,94.000L162.280,232.450" class="fills"/><g class="strokes"><path d="M102.000,94.000L162.280,232.450" style="fill: none; stroke-width: 4; stroke: rgb(255, 206, 0); stroke-opacity: 1;" class="stroke-shape"/></g><path d="M42.640,-44.843L102.919,93.607" class="fills"/><g class="strokes"><path d="M42.640,-44.843L102.919,93.607" style="fill: none; stroke-width: 4; stroke: rgb(255, 206, 0); stroke-opacity: 1;" class="stroke-shape"/></g><path d="M101.607,93.081L-36.843,153.360" class="fills"/><g class="strokes"><path d="M101.607,93.081L-36.843,153.360" style="fill: none; stroke-width: 4; stroke: rgb(255, 206, 0); stroke-opacity: 1;" class="stroke-shape"/></g><path d="M240.450,33.720L102.000,94.000" class="fills"/><g class="strokes"><path d="M240.450,33.720L102.000,94.000" style="fill: none; stroke-width: 4; stroke: rgb(255, 206, 0); stroke-opacity: 1;" class="stroke-shape"/></g><ellipse cx="102.5" cy="94.5" rx="71.5" ry="71.5" transform="matrix(1.000000, 0.000000, 0.000000, 1.000000, 0.000000, 0.000000)" style="fill: rgb(194, 233, 255); fill-opacity: 1;" class="fills"/><ellipse cx="102" cy="94" rx="59" ry="59" transform="matrix(1.000000, 0.000000, 0.000000, 1.000000, 0.000000, 0.000000)" style="fill: rgb(255, 206, 0); fill-opacity: 1;" class="fills"/><rect rx="0" ry="0" x="-170" y="306" transform="matrix(1.000000, 0.000000, 0.000000, 1.000000, 0.000000, 0.000000)" width="892" height="204" style="fill: rgb(62, 135, 19); fill-opacity: 1;" class="fills"/><rect rx="0" ry="0" x="374" y="198" transform="matrix(1.000000, 0.000000, 0.000000, 1.000000, 0.000000, 0.000000)" width="272" height="213" style="fill: rgb(164, 102, 0); fill-opacity: 1;" class="fills"/><g class="strokes"><g class="inner-stroke-shape" transform="matrix(1.000000, 0.000000, 0.000000, 1.000000, 0.000000, 0.000000)"><defs><clipPath id="c"><use href="#b"/></clipPath><rect rx="0" ry="0" x="374" y="198" width="272" height="213" id="b" style="fill: none; stroke-width: 2; stroke: rgb(0, 0, 0); stroke-opacity: 1;"/></defs><use href="#b" clip-path="url('#c')"/></g></g><rect rx="0" ry="0" x="535.5" y="287" transform="matrix(1.000000, 0.000000, 0.000000, 1.000000, 0.000000, 0.000000)" width="80" height="124" style="fill: rgb(197, 127, 33); fill-opacity: 1;" class="fills"/><g class="strokes"><g class="inner-stroke-shape" transform="matrix(1.000000, 0.000000, 0.000000, 1.000000, 0.000000, 0.000000)"><defs><clipPath id="e"><use href="#d"/></clipPath><rect rx="0" ry="0" x="535.5" y="287" width="80" height="124" id="d" style="fill: none; stroke-width: 2; stroke: rgb(0, 0, 0); stroke-opacity: 1;"/></defs><use href="#d" clip-path="url('#e')"/></g></g><rect rx="0" ry="0" x="517" y="407" transform="matrix(1.000000, 0.000000, 0.000000, 1.000000, 0.000000, 0.000000)" width="117" height="4" style="fill: rgb(177, 178, 181); fill-opacity: 1;" class="fills"/><g class="strokes"><g class="inner-stroke-shape" transform="matrix(1.000000, 0.000000, 0.000000, 1.000000, 0.000000, 0.000000)"><defs><clipPath id="g"><use href="#f"/></clipPath><rect rx="0" ry="0" x="517" y="407" width="117" height="4" id="f" style="fill: none; stroke-width: 2; stroke: rgb(0, 0, 0); stroke-opacity: 1;"/></defs><use href="#f" clip-path="url('#g')"/></g></g><path d="M544.000,355.000L550.000,359.000" class="fills"/><g class="strokes"><path d="M544.000,355.000L550.000,359.000" style="fill: none; stroke-width: 2; stroke: rgb(157, 89, 0); stroke-opacity: 1; stroke-linecap: round;" class="stroke-shape"/></g><rect rx="0" ry="0" x="406" y="228" transform="matrix(1.000000, 0.000000, 0.000000, 1.000000, 0.000000, 0.000000)" width="91" height="91" style="fill: rgb(91, 131, 184); fill-opacity: 1;" class="fills"/><g class="strokes"><g class="inner-stroke-shape" transform="matrix(1.000000, 0.000000, 0.000000, 1.000000, 0.000000, 0.000000)"><defs><clipPath id="i"><use href="#h"/></clipPath><rect rx="0" ry="0" x="406" y="228" width="91" height="91" id="h" style="fill: none; stroke-width: 4; stroke: rgb(89, 89, 89); stroke-opacity: 1;"/></defs><use href="#h" clip-path="url('#i')"/></g></g><path d="M343.000,202.000L677.000,202.000L502.000,93.000L343.000,202.000Z" style="fill: rgb(177, 178, 181); fill-opacity: 1;" class="fills"/><g class="strokes"><g class="inner-stroke-shape"><defs><clipPath id="k"><use href="#j"/></clipPath><path d="M343.000,202.000L677.000,202.000L502.000,93.000L343.000,202.000Z" id="j" style="fill: none; stroke-width: 2; stroke: rgb(0, 0, 0); stroke-opacity: 1;"/></defs><use href="#j" clip-path="url('#k')"/></g></g></g></g></svg>