<?xml version="1.0" encoding="UTF-8" standalone="no"?>
<svg
   xmlns:dc="http://purl.org/dc/elements/1.1/"
   xmlns:cc="http://creativecommons.org/ns#"
   xmlns:rdf="http://www.w3.org/1999/02/22-rdf-syntax-ns#"
   xmlns:svg="http://www.w3.org/2000/svg"
   xmlns="http://www.w3.org/2000/svg"
   viewBox="0 0 878.66669 480"
   height="480"
   width="878.66669"
   xml:space="preserve"
   id="svg2"
   version="1.1"><metadata
     id="metadata8"><rdf:RDF><cc:Work
         rdf:about=""><dc:format>image/svg+xml</dc:format><dc:type
           rdf:resource="http://purl.org/dc/dcmitype/StillImage" /></cc:Work></rdf:RDF></metadata><defs
     id="defs6"><clipPath
       id="clipPath20"
       clipPathUnits="userSpaceOnUse"><path
         id="path18"
         d="M 0,3600 H 6589 V 0 H 0 Z" /></clipPath></defs><g
     transform="matrix(1.3333333,0,0,-1.3333333,0,480)"
     id="g10"><g
       transform="scale(0.1)"
       id="g12"><g
         id="g14"><g
           clip-path="url(#clipPath20)"
           id="g16"><path
             id="path22"
             style="fill:none;stroke:#ff7b38;stroke-width:17.99099922;stroke-linecap:round;stroke-linejoin:round;stroke-miterlimit:10;stroke-dasharray:none;stroke-opacity:1"
             d="m 411.441,3239.28 h 599.699 v -599.7 H 411.441 v 599.7" /><path
             id="path24"
             style="fill:none;stroke:#ff7b38;stroke-width:17.99099922;stroke-linecap:round;stroke-linejoin:round;stroke-miterlimit:10;stroke-dasharray:none;stroke-opacity:1"
             d="m 1310.99,3239.28 h 899.55 v -599.7 h -899.55 v 599.7" /><path
             id="path26"
             style="fill:none;stroke:#ff7b38;stroke-width:17.99099922;stroke-linecap:round;stroke-linejoin:round;stroke-miterlimit:10;stroke-dasharray:none;stroke-opacity:1"
             d="m 2510.39,2639.58 h 659.67 l -329.83,571.29 -329.84,-571.29" /><path
             id="path28"
             style="fill:none;stroke:#ff7b38;stroke-width:17.99099922;stroke-linecap:round;stroke-linejoin:round;stroke-miterlimit:10;stroke-dasharray:none;stroke-opacity:1"
             d="m 3709.79,2639.58 92.66,14.67 83.59,42.6 66.34,66.33 42.58,83.59 14.68,92.66 -14.68,92.66 -42.58,83.59 -66.34,66.34 -83.59,42.59 -92.66,14.67 -92.66,-14.67 -83.59,-42.59 -66.33,-66.34 -42.59,-83.59 -14.68,-92.66 14.68,-92.66 42.59,-83.59 66.33,-66.33 83.59,-42.6 92.66,-14.67" /><path
             id="path30"
             style="fill:none;stroke:#ff7b38;stroke-width:17.99099922;stroke-linecap:round;stroke-linejoin:round;stroke-miterlimit:10;stroke-dasharray:none;stroke-opacity:1"
             d="m 4309.49,2639.58 92.66,14.67 83.59,42.6 66.33,66.33 42.59,83.59 14.68,92.66 -14.68,92.66 -42.59,83.59 -66.33,66.34 -83.59,42.59 -92.66,14.67" /><path
             id="path32"
             style="fill:none;stroke:#ff7b38;stroke-width:17.99099922;stroke-linecap:round;stroke-linejoin:round;stroke-miterlimit:10;stroke-dasharray:none;stroke-opacity:1"
             d="m 4969.16,3239.28 -92.66,-14.67 -83.59,-42.59 -66.33,-66.34 -42.6,-83.59 -14.67,-92.66 14.67,-92.66 42.6,-83.59 66.33,-66.33 83.59,-42.6 92.66,-14.67" /><path
             id="path34"
             style="fill:none;stroke:#ff7b38;stroke-width:17.99099922;stroke-linecap:round;stroke-linejoin:round;stroke-miterlimit:10;stroke-dasharray:none;stroke-opacity:1"
             d="m 5418.93,2639.58 h 395.81 l 122.31,376.43 -320.21,232.65 -320.21,-232.65 122.3,-376.43" /><path
             id="path36"
             style="fill:none;stroke:#ff7b38;stroke-width:17.99099922;stroke-linecap:round;stroke-linejoin:round;stroke-miterlimit:10;stroke-dasharray:none;stroke-opacity:1"
             d="m 627.332,2279.76 h 419.788 l 209.9,-363.55 -209.9,-363.55 H 627.332 l -209.894,363.55 209.894,363.55" /><path
             id="path38"
             style="fill:none;stroke:#ff7b38;stroke-width:17.99099922;stroke-linecap:round;stroke-linejoin:round;stroke-miterlimit:10;stroke-dasharray:none;stroke-opacity:1"
             d="m 1790.75,2279.76 h 299.85 l 212.03,-212.03 V 1767.88 L 2090.6,1555.86 h -299.85 l -212.03,212.02 v 299.85 l 212.03,212.03" /><path
             id="path40"
             style="fill:none;stroke:#ff7b38;stroke-width:17.99099922;stroke-linecap:round;stroke-linejoin:round;stroke-miterlimit:10;stroke-dasharray:none;stroke-opacity:1"
             d="m 2600.34,2039.88 h 827.59 l -669.53,-486.44 255.74,787.08 255.74,-787.08 -669.54,486.44" /><path
             id="path42"
             style="fill:none;stroke:#ff7b38;stroke-width:17.99099922;stroke-linecap:round;stroke-linejoin:round;stroke-miterlimit:10;stroke-dasharray:none;stroke-opacity:1"
             d="m 4069.61,2177.81 -47.86,40.16 -58.72,21.37 h -62.48 l -58.71,-21.37 -47.87,-40.16 -31.24,-54.11 -10.85,-61.53 10.85,-61.54 31.24,-54.11 269.84,-321.57 269.83,321.57 31.24,54.11 10.85,61.54 -10.85,61.53 -31.24,54.11 -47.86,40.16 -58.71,21.37 h -62.49 l -58.71,-21.37 -47.87,-40.16" /><path
             id="path44"
             style="fill:none;stroke:#ff7b38;stroke-width:17.99099922;stroke-linecap:round;stroke-linejoin:round;stroke-miterlimit:10;stroke-dasharray:none;stroke-opacity:1"
             d="m 4777.26,1740.03 104.99,-83.73 120.99,-58.26 130.92,-29.89 h 134.29 l 130.93,29.89 120.99,58.26 104.99,83.73 55.14,75.9 28.99,89.22 v 93.81 l -28.99,89.22 -55.14,75.9 -104.99,83.73 -120.99,58.27 -130.93,29.88 h -134.29 l -130.92,-29.88 -120.99,-58.27 -104.99,-83.73 -55.15,-75.9 -28.98,-89.22 v -93.81 l 28.98,-89.22 55.15,-75.9" /><path
             id="path46"
             style="fill:none;stroke:#ff7b38;stroke-width:17.99099922;stroke-linecap:round;stroke-linejoin:round;stroke-miterlimit:10;stroke-dasharray:none;stroke-opacity:1"
             d="m 885.203,810.496 -5.937,26.02 -16.641,20.867 -24.047,11.578 h -26.691 l -24.043,-11.578 -16.641,-20.867 -5.941,-26.02 9.133,-45.898 26,-38.914 38.91,-26 45.898,-9.129 45.899,9.129 38.91,26 26,38.914 9.128,45.898 -10.847,61.531 -31.242,54.114 -47.863,40.16 -58.715,21.371 h -62.481 l -58.715,-21.371 -47.863,-40.16 -31.242,-54.114 -10.848,-61.531 14.465,-82.043 41.656,-72.148 63.817,-53.551 78.285,-28.496 h 83.312 l 78.281,28.496 63.82,53.551 41.66,72.148 14.46,82.043 -14.67,92.656 -42.59,83.59 -66.34,66.338 -83.589,42.59 -92.657,14.67 -92.66,-14.67 -83.59,-42.59 -66.336,-66.338 -42.589,-83.59" /><path
             id="path48"
             style="fill:none;stroke:#ff7b38;stroke-width:17.99099922;stroke-linecap:round;stroke-linejoin:round;stroke-miterlimit:10;stroke-dasharray:none;stroke-opacity:1"
             d="m 540.059,903.152 -14.676,-92.656 14.574,-101.375 42.547,-93.16 67.066,-77.398 86.16,-55.372 98.266,-28.855 H 936.41 l 98.27,28.855 86.16,55.372 67.06,77.398 42.55,93.16 14.57,101.375 -14.3,108.649 -41.94,101.245 -66.71,86.94 -86.94,66.71 -101.247,41.94 -108.649,14.31 -108.652,-14.31 -101.242,-41.94 -86.942,-66.71 -66.714,-86.94 -41.938,-101.245 -14.305,-108.649" /><path
             id="path50"
             style="fill:none;stroke:#ff7b38;stroke-width:17.99099922;stroke-linecap:round;stroke-linejoin:round;stroke-miterlimit:10;stroke-dasharray:none;stroke-opacity:1"
             d="m 1982.65,1038.38 h 227.89 L 2096.6,841.027 2210.54,643.672 H 1982.65 L 1868.71,446.316 1754.77,643.672 h -227.89 l 113.94,197.355 -113.94,197.353 h 227.89 l 113.94,197.35 113.94,-197.35" /><path
             id="path52"
             style="fill:none;stroke:#ff7b38;stroke-width:17.99099922;stroke-linecap:round;stroke-linejoin:round;stroke-miterlimit:10;stroke-dasharray:none;stroke-opacity:1"
             d="m 2570.36,948.426 h 299.85 V 1188.3 L 3230.65,827.863 2870.21,467.418 v 239.879 h -299.85 v 251.875" /><path
             id="path54"
             style="fill:none;stroke:#ff7b38;stroke-width:17.99099922;stroke-linecap:round;stroke-linejoin:round;stroke-miterlimit:10;stroke-dasharray:none;stroke-opacity:1"
             d="m 3559.86,948.426 h 209.9 v 209.894 h 209.9 V 948.426 h 209.89 V 738.531 H 3979.66 V 528.637 h -209.9 v 209.894 h -209.9 v 209.895" /><path
             id="path56"
             style="fill:none;stroke:#ff7b38;stroke-width:17.99099922;stroke-linecap:round;stroke-linejoin:round;stroke-miterlimit:10;stroke-dasharray:none;stroke-opacity:1"
             d="M 4477.41,864.469 4693.3,1238.4 4909.19,864.469 4693.3,490.531 4477.41,864.469" /><path
             id="path58"
             style="fill:none;stroke:#ff7b38;stroke-width:17.99099922;stroke-linecap:round;stroke-linejoin:round;stroke-miterlimit:10;stroke-dasharray:none;stroke-opacity:1"
             d="m 5167.06,510.645 h 779.61 L 5724.29,1195.06 H 5388.46 L 5166.08,510.645" /></g></g></g></g></svg>