<?xml version="1.0" encoding="UTF-8" standalone="no"?>
<svg
   xmlns:dc="http://purl.org/dc/elements/1.1/"
   xmlns:cc="http://creativecommons.org/ns#"
   xmlns:rdf="http://www.w3.org/1999/02/22-rdf-syntax-ns#"
   xmlns:svg="http://www.w3.org/2000/svg"
   xmlns="http://www.w3.org/2000/svg"
   viewBox="0 0 792 432"
   height="432"
   width="792"
   xml:space="preserve"
   id="svg2"
   version="1.1"><metadata
     id="metadata8"><rdf:RDF><cc:Work
         rdf:about=""><dc:format>image/svg+xml</dc:format><dc:type
           rdf:resource="http://purl.org/dc/dcmitype/StillImage" /></cc:Work></rdf:RDF></metadata><defs
     id="defs6"><clipPath
       id="clipPath20"
       clipPathUnits="userSpaceOnUse"><path
         id="path18"
         d="M 1.48438,0.808594 H 5938.5144 V 3239.1886 H 1.48438 Z" /></clipPath></defs><g
     transform="matrix(1.3333333,0,0,-1.3333333,0,432)"
     id="g10"><g
       transform="scale(0.1)"
       id="g12"><g
         id="g14"><g
           clip-path="url(#clipPath20)"
           id="g16"><path
             id="path22"
             style="fill:none;stroke:#ff9f6f;stroke-width:17.99099922;stroke-linecap:round;stroke-linejoin:round;stroke-miterlimit:10;stroke-dasharray:none;stroke-opacity:1"
             d="m 181.395,2987.32 h 599.699 v -599.7 H 181.395 v 599.7" /><path
             id="path24"
             style="fill:none;stroke:#ff9f6f;stroke-width:17.99099922;stroke-linecap:round;stroke-linejoin:round;stroke-miterlimit:10;stroke-dasharray:none;stroke-opacity:1"
             d="m 1080.95,2987.32 h 899.55 v -599.7 h -899.55 v 599.7" /><path
             id="path26"
             style="fill:none;stroke:#ff9f6f;stroke-width:17.99099922;stroke-linecap:round;stroke-linejoin:round;stroke-miterlimit:10;stroke-dasharray:none;stroke-opacity:1"
             d="m 2280.34,2387.62 h 659.68 l -329.84,571.29 -329.84,-571.29" /><path
             id="path28"
             style="fill:none;stroke:#ff9f6f;stroke-width:17.99099922;stroke-linecap:round;stroke-linejoin:round;stroke-miterlimit:10;stroke-dasharray:none;stroke-opacity:1"
             d="m 3479.75,2387.62 92.65,14.67 83.59,42.59 66.34,66.34 42.59,83.59 14.67,92.65 -14.67,92.67 -42.59,83.58 -66.34,66.34 -83.59,42.59 -92.65,14.68 -92.66,-14.68 -83.59,-42.59 -66.34,-66.34 -42.59,-83.58 -14.68,-92.67 14.68,-92.65 42.59,-83.59 66.34,-66.34 83.59,-42.59 92.66,-14.67" /><path
             id="path30"
             style="fill:none;stroke:#ff9f6f;stroke-width:17.99099922;stroke-linecap:round;stroke-linejoin:round;stroke-miterlimit:10;stroke-dasharray:none;stroke-opacity:1"
             d="m 4079.45,2387.62 92.66,14.67 83.58,42.59 66.34,66.34 42.59,83.59 14.68,92.65 -14.68,92.67 -42.59,83.58 -66.34,66.34 -83.58,42.59 -92.66,14.68" /><path
             id="path32"
             style="fill:none;stroke:#ff9f6f;stroke-width:17.99099922;stroke-linecap:round;stroke-linejoin:round;stroke-miterlimit:10;stroke-dasharray:none;stroke-opacity:1"
             d="m 4739.12,2987.32 -92.66,-14.68 -83.59,-42.59 -66.34,-66.34 -42.59,-83.58 -14.67,-92.67 14.67,-92.65 42.59,-83.59 66.34,-66.34 83.59,-42.59 92.66,-14.67" /><path
             id="path34"
             style="fill:none;stroke:#ff9f6f;stroke-width:17.99099922;stroke-linecap:round;stroke-linejoin:round;stroke-miterlimit:10;stroke-dasharray:none;stroke-opacity:1"
             d="m 5188.89,2387.62 h 395.8 l 122.31,376.43 -320.21,232.64 -320.21,-232.64 122.31,-376.43" /><path
             id="path36"
             style="fill:none;stroke:#ff9f6f;stroke-width:17.99099922;stroke-linecap:round;stroke-linejoin:round;stroke-miterlimit:10;stroke-dasharray:none;stroke-opacity:1"
             d="M 397.289,2027.8 H 817.078 L 1026.97,1664.25 817.078,1300.7 H 397.289 l -209.898,363.55 209.898,363.55" /><path
             id="path38"
             style="fill:none;stroke:#ff9f6f;stroke-width:17.99099922;stroke-linecap:round;stroke-linejoin:round;stroke-miterlimit:10;stroke-dasharray:none;stroke-opacity:1"
             d="m 1560.71,2027.8 h 299.84 l 212.03,-212.03 v -299.85 l -212.03,-212.03 h -299.84 l -212.03,212.03 v 299.85 l 212.03,212.03" /><path
             id="path40"
             style="fill:none;stroke:#ff9f6f;stroke-width:17.99099922;stroke-linecap:round;stroke-linejoin:round;stroke-miterlimit:10;stroke-dasharray:none;stroke-opacity:1"
             d="m 2370.3,1787.92 h 827.59 l -669.53,-486.45 255.73,787.08 255.74,-787.08 -669.53,486.45" /><path
             id="path42"
             style="fill:none;stroke:#ff9f6f;stroke-width:17.99099922;stroke-linecap:round;stroke-linejoin:round;stroke-miterlimit:10;stroke-dasharray:none;stroke-opacity:1"
             d="m 3839.57,1925.85 -47.87,40.16 -58.71,21.37 h -62.49 l -58.71,-21.37 -47.86,-40.16 -31.24,-54.12 -10.85,-61.53 10.85,-61.53 31.24,-54.11 269.83,-321.58 269.84,321.58 31.24,54.11 10.85,61.53 -10.85,61.53 -31.24,54.12 -47.87,40.16 -58.71,21.37 h -62.48 l -58.72,-21.37 -47.86,-40.16" /><path
             id="path44"
             style="fill:none;stroke:#ff9f6f;stroke-width:17.99099922;stroke-linecap:round;stroke-linejoin:round;stroke-miterlimit:10;stroke-dasharray:none;stroke-opacity:1"
             d="m 4547.21,1488.07 104.99,-83.73 121,-58.27 130.92,-29.88 h 134.29 l 130.92,29.88 120.99,58.27 105,83.73 55.14,75.89 28.99,89.22 V 1747 l -28.99,89.22 -55.14,75.9 -105,83.73 -120.99,58.26 -130.92,29.89 h -134.29 l -130.92,-29.89 -121,-58.26 -104.99,-83.73 -55.14,-75.9 -28.99,-89.22 v -93.82 l 28.99,-89.22 55.14,-75.89" /><path
             id="path46"
             style="fill:none;stroke:#ff9f6f;stroke-width:17.99099922;stroke-linecap:round;stroke-linejoin:round;stroke-miterlimit:10;stroke-dasharray:none;stroke-opacity:1"
             d="m 655.16,558.531 -5.941,26.02 -16.641,20.867 -24.047,11.578 h -26.687 l -24.047,-11.578 -16.641,-20.867 -5.937,-26.02 9.129,-45.898 26,-38.914 38.91,-25.996 45.902,-9.133 45.899,9.133 38.91,25.996 26,38.914 9.129,45.898 -10.848,61.532 -31.242,54.113 -47.863,40.16 -58.715,21.371 h -62.485 l -58.711,-21.371 -47.863,-40.16 -31.242,-54.113 -10.852,-61.532 14.469,-82.043 41.652,-72.148 63.821,-53.551 78.285,-28.492 h 83.309 l 78.285,28.492 63.82,53.551 41.652,72.148 14.469,82.043 -14.676,92.66 -42.59,83.586 -66.335,66.336 -83.59,42.594 -92.66,14.676 -92.657,-14.676 -83.59,-42.594 -66.336,-66.336 -42.589,-83.586" /><path
             id="path48"
             style="fill:none;stroke:#ff9f6f;stroke-width:17.99099922;stroke-linecap:round;stroke-linejoin:round;stroke-miterlimit:10;stroke-dasharray:none;stroke-opacity:1"
             d="m 310.016,651.191 -14.676,-92.66 14.574,-101.375 42.543,-93.16 67.07,-77.398 86.157,-55.371 98.265,-28.852 h 102.418 l 98.266,28.852 86.156,55.371 67.07,77.398 42.541,93.16 14.58,101.375 -14.3,108.649 -41.942,101.246 -66.715,86.941 -86.941,66.711 L 703.84,964.016 595.188,978.32 486.539,964.016 385.293,922.078 298.352,855.367 231.641,768.426 189.703,667.18 175.398,558.531" /><path
             id="path50"
             style="fill:none;stroke:#ff9f6f;stroke-width:17.99099922;stroke-linecap:round;stroke-linejoin:round;stroke-miterlimit:10;stroke-dasharray:none;stroke-opacity:1"
             d="M 1752.61,786.418 H 1980.5 L 1866.55,589.063 1980.5,391.707 H 1752.61 L 1638.67,194.352 1524.72,391.707 h -227.88 l 113.94,197.356 -113.94,197.355 h 227.88 l 113.95,197.355 113.94,-197.355" /><path
             id="path52"
             style="fill:none;stroke:#ff9f6f;stroke-width:17.99099922;stroke-linecap:round;stroke-linejoin:round;stroke-miterlimit:10;stroke-dasharray:none;stroke-opacity:1"
             d="m 2340.32,696.461 h 299.84 V 936.344 L 3000.61,575.898 2640.16,215.453 v 239.879 h -299.84 v 239.883" /><path
             id="path54"
             style="fill:none;stroke:#ff9f6f;stroke-width:17.99099922;stroke-linecap:round;stroke-linejoin:round;stroke-miterlimit:10;stroke-dasharray:none;stroke-opacity:1"
             d="m 3329.82,696.461 h 209.89 v 209.894 h 209.9 V 696.461 H 3959.5 V 486.566 H 3749.61 V 276.672 h -209.9 v 209.894 h -209.89 v 209.895" /><path
             id="path56"
             style="fill:none;stroke:#ff9f6f;stroke-width:17.99099922;stroke-linecap:round;stroke-linejoin:round;stroke-miterlimit:10;stroke-dasharray:none;stroke-opacity:1"
             d="M 4247.36,612.504 4463.25,986.441 4679.14,612.504 4463.25,238.566 4247.36,612.504" /><path
             id="path58"
             style="fill:none;stroke:#ff9f6f;stroke-width:17.99099922;stroke-linecap:round;stroke-linejoin:round;stroke-miterlimit:10;stroke-dasharray:none;stroke-opacity:1"
             d="m 4937.02,258.68 h 779.61 L 5494.25,943.098 H 5158.41 L 4936.03,258.68" /></g></g></g></g></svg>