<svg xmlns:inkscape="http://www.inkscape.org/namespaces/inkscape" xmlns:sodipodi="http://sodipodi.sourceforge.net/DTD/sodipodi-0.dtd" xmlns="http://www.w3.org/2000/svg" xmlns:svg="http://www.w3.org/2000/svg" version="1.1" id="svg2" width="516" height="433.33334" viewBox="-3 -3 522 439" sodipodi:docname="snowflake.eps"><g id="deeditor_bgCarrier" stroke-width="0">
    <rect id="dee_c_e" x="-3" y="-3" width="522" height="439" rx="0" fill="#653fb5" strokewidth="0"/>
  </g>
  <defs id="defs6" fill="#000000">
    <clipPath clipPathUnits="userSpaceOnUse" id="clipPath18" fill="#000000">
      <path d="M 4.96484,0.808594 H 3861.0348 V 3245.1886 H 4.96484 Z" id="path16" fill="#000000"/>
    </clipPath>
  </defs>
  <sodipodi:namedview id="namedview4" pagecolor="#ffffff" bordercolor="#000000" borderopacity="0.25" inkscape:showpageshadow="2" inkscape:pageopacity="0.0" inkscape:pagecheckerboard="0" inkscape:deskcolor="#d1d1d1" fill="#000000"/>
  <g id="g8" inkscape:groupmode="layer" inkscape:label="ink_ext_XXXXXX" transform="matrix(1.3333333,0,0,-1.3333333,0,433.33333)">
    <g id="g10" transform="scale(0.1)">
      <g id="g12">
        <g id="g14" clip-path="url(#clipPath18)">
          <path d="m 2433.75,1602.01 113.08,113.08 -113.08,-113.08 h 159.92 -159.92 l 113.08,-113.08 -113.08,113.08 h -159.92 l 113.08,113.08 -113.08,-113.08 h 159.92 -159.92 l 113.08,-113.08 -113.08,113.08 h -159.92 l 113.08,113.08 -113.08,-113.08 h 159.92 -159.92 l 113.08,-113.08 -113.08,113.08 h -159.92 l 339.24,-339.24 h 159.92 -159.92 l 113.08,-113.08 -113.08,113.08 v -159.92 159.92 l -113.08,113.08 h 159.92 -159.92 l 113.08,-113.08 -113.08,113.08 v -159.92 159.92 l -113.08,113.08 h 159.92 -159.92 l 113.08,-113.08 -113.08,113.08 v -159.92 159.92" style="fill:none;stroke:#87ceeb;stroke-width:23.988;stroke-linecap:round;stroke-linejoin:round;stroke-miterlimit:10;stroke-dasharray:none;stroke-opacity:1" id="path20"/>
          <path d="m 2067.07,1488.93 -113.08,113.08 v -479.76 l 113.08,-113.08 -113.08,113.08 V 962.328 1122.25 l -113.08,-113.08 113.08,113.08 v 159.92 l 113.08,-113.08 -113.08,113.08 v -159.92 159.92 l -113.08,-113.08 113.08,113.08 v 159.92 l 113.08,-113.08 -113.08,113.08 v -159.92 159.92 l -113.08,-113.08 113.08,113.08 v 159.92 l -339.24,-339.24 v -159.92 159.92 l -113.08,-113.08 113.08,113.08 h -159.92 159.92 l 113.08,113.08 v -159.92 159.92 l -113.08,-113.08 113.08,113.08 h -159.92 159.92 l 113.08,113.08 v -159.92 159.92 l -113.08,-113.08 113.08,113.08" style="fill:none;stroke:#87ceeb;stroke-width:23.988;stroke-linecap:round;stroke-linejoin:round;stroke-miterlimit:10;stroke-dasharray:none;stroke-opacity:1" id="path22"/>
          <path d="m 1840.91,1488.93 h -159.92 159.92 l 113.08,113.08 h -479.76 l -113.08,-113.08 113.08,113.08 h -159.92 159.92 l -113.08,113.08 113.08,-113.08 h 159.92 l -113.08,-113.08 113.08,113.08 h -159.92 159.92 l -113.08,113.08 113.08,-113.08 h 159.92 l -113.08,-113.08 113.08,113.08 h -159.92 159.92 l -113.08,113.08 113.08,-113.08 h 159.92 l -339.24,339.24 h -159.92 159.92 l -113.08,113.08 113.08,-113.08 v 159.92 -159.92 l 113.08,-113.08 h -159.92 159.92 l -113.08,113.08 113.08,-113.08 v 159.92 -159.92 l 113.08,-113.08 h -159.92 159.92" style="fill:none;stroke:#87ceeb;stroke-width:23.988;stroke-linecap:round;stroke-linejoin:round;stroke-miterlimit:10;stroke-dasharray:none;stroke-opacity:1" id="path24"/>
          <path d="m 1840.91,1715.09 -113.08,113.08 113.08,-113.08 v 159.92 -159.92 l 113.08,-113.08 v 479.76 l -113.08,113.08 113.08,-113.08 v 159.92 -159.92 l 113.08,113.08 -113.08,-113.08 v -159.92 l -113.08,113.08 113.08,-113.08 v 159.92 -159.92 l 113.08,113.08 -113.08,-113.08 v -159.92 l -113.08,113.08 113.08,-113.08 v 159.92 -159.92 l 113.08,113.08 -113.08,-113.08 v -159.92 l 339.24,339.24 v 159.92 -159.92 l 113.08,113.08 -113.08,-113.08 h 159.92 -159.92 l -113.08,-113.08 v 159.92 -159.92 l 113.08,113.08 -113.08,-113.08 h 159.92 -159.92 l -113.08,-113.08" style="fill:none;stroke:#87ceeb;stroke-width:23.988;stroke-linecap:round;stroke-linejoin:round;stroke-miterlimit:10;stroke-dasharray:none;stroke-opacity:1" id="path26"/>
          <path d="m 2067.07,1715.09 v 159.92 -159.92 l 113.08,113.08 -113.08,-113.08 h 159.92 -159.92 l -113.08,-113.08 h 479.76" style="fill:none;stroke:#87ceeb;stroke-width:23.988;stroke-linecap:round;stroke-linejoin:round;stroke-miterlimit:10;stroke-dasharray:none;stroke-opacity:1" id="path28"/>
        </g>
      </g>
    </g>
  </g>
</svg>