<?xml version="1.0" encoding="UTF-8" standalone="no"?>
<!-- Created with Inkscape (http://www.inkscape.org/) -->

<svg
   version="1.1"
   id="svg2"
   width="577.33331"
   height="565.33331"
   viewBox="0 0 577.33331 565.33331"
   sodipodi:docname="snowflake.eps"
   xmlns:inkscape="http://www.inkscape.org/namespaces/inkscape"
   xmlns:sodipodi="http://sodipodi.sourceforge.net/DTD/sodipodi-0.dtd"
   xmlns="http://www.w3.org/2000/svg"
   xmlns:svg="http://www.w3.org/2000/svg">
  <defs
     id="defs6">
    <clipPath
       clipPathUnits="userSpaceOnUse"
       id="clipPath18">
      <path
         d="M 1.08203,9.05469 H 4324.922 V 4236.9447 H 1.08203 Z"
         id="path16" />
    </clipPath>
  </defs>
  <sodipodi:namedview
     id="namedview4"
     pagecolor="#ffffff"
     bordercolor="#000000"
     borderopacity="0.25"
     inkscape:showpageshadow="2"
     inkscape:pageopacity="0.0"
     inkscape:pagecheckerboard="0"
     inkscape:deskcolor="#d1d1d1" />
  <g
     id="g8"
     inkscape:groupmode="layer"
     inkscape:label="ink_ext_XXXXXX"
     transform="matrix(1.3333333,0,0,-1.3333333,0,565.33333)">
    <g
       id="g10"
       transform="scale(0.1)">
      <g
         id="g12">
        <g
           id="g14"
           clip-path="url(#clipPath18)">
          <path
             d="m 2663.75,2102.01 113.08,113.08 -113.08,-113.08 h 159.92 -159.92 l 113.08,-113.08 -113.08,113.08 h -159.92 l 113.08,113.08 -113.08,-113.08 h 159.92 -159.92 l 113.08,-113.08 -113.08,113.08 h -159.92 l 113.08,113.08 -113.08,-113.08 h 159.92 -159.92 l 113.08,-113.08 -113.08,113.08 h -159.92 l 339.24,-339.24 h 159.92 -159.92 l 113.08,-113.08 -113.08,113.08 v -159.92 159.92 l -113.08,113.08 h 159.92 -159.92 l 113.08,-113.08 -113.08,113.08 v -159.92 159.92 l -113.08,113.08 h 159.92 -159.92 l 113.08,-113.08 -113.08,113.08 v -159.92 159.92"
             style="fill:none;stroke:#87ceeb;stroke-width:17.991;stroke-linecap:round;stroke-linejoin:round;stroke-miterlimit:10;stroke-dasharray:none;stroke-opacity:1"
             id="path20" />
          <path
             d="m 2297.07,1988.93 -113.08,113.08 v -479.76 l 113.08,-113.08 -113.08,113.08 v -159.92 159.92 l -113.08,-113.08 113.08,113.08 v 159.92 l 113.08,-113.08 -113.08,113.08 v -159.92 159.92 l -113.08,-113.08 113.08,113.08 v 159.92 l 113.08,-113.08 -113.08,113.08 v -159.92 159.92 l -113.08,-113.08 113.08,113.08 v 159.92 l -339.24,-339.24 v -159.92 159.92 l -113.08,-113.08 113.08,113.08 h -159.92 159.92 l 113.08,113.08 v -159.92 159.92 l -113.08,-113.08 113.08,113.08 h -159.92 159.92 l 113.08,113.08 v -159.92 159.92 l -113.08,-113.08 113.08,113.08"
             style="fill:none;stroke:#87ceeb;stroke-width:17.991;stroke-linecap:round;stroke-linejoin:round;stroke-miterlimit:10;stroke-dasharray:none;stroke-opacity:1"
             id="path22" />
          <path
             d="m 2070.91,1988.93 h -159.92 159.92 l 113.08,113.08 h -479.76 l -113.08,-113.08 113.08,113.08 h -159.92 159.92 l -113.08,113.08 113.08,-113.08 h 159.92 l -113.08,-113.08 113.08,113.08 h -159.92 159.92 l -113.08,113.08 113.08,-113.08 h 159.92 l -113.08,-113.08 113.08,113.08 h -159.92 159.92 l -113.08,113.08 113.08,-113.08 h 159.92 l -339.24,339.24 h -159.92 159.92 l -113.08,113.08 113.08,-113.08 v 159.92 -159.92 l 113.08,-113.08 h -159.92 159.92 l -113.08,113.08 113.08,-113.08 v 159.92 -159.92 l 113.08,-113.08 h -159.92 159.92"
             style="fill:none;stroke:#87ceeb;stroke-width:17.991;stroke-linecap:round;stroke-linejoin:round;stroke-miterlimit:10;stroke-dasharray:none;stroke-opacity:1"
             id="path24" />
          <path
             d="m 2070.91,2215.09 -113.08,113.08 113.08,-113.08 v 159.92 -159.92 l 113.08,-113.08 v 479.76 l -113.08,113.08 113.08,-113.08 v 159.92 -159.92 l 113.08,113.08 -113.08,-113.08 v -159.92 l -113.08,113.08 113.08,-113.08 v 159.92 -159.92 l 113.08,113.08 -113.08,-113.08 v -159.92 l -113.08,113.08 113.08,-113.08 v 159.92 -159.92 l 113.08,113.08 -113.08,-113.08 v -159.92 l 339.24,339.24 v 159.92 -159.92 l 113.08,113.08 -113.08,-113.08 h 159.92 -159.92 l -113.08,-113.08 v 159.92 -159.92 l 113.08,113.08 -113.08,-113.08 h 159.92 -159.92 l -113.08,-113.08"
             style="fill:none;stroke:#87ceeb;stroke-width:17.991;stroke-linecap:round;stroke-linejoin:round;stroke-miterlimit:10;stroke-dasharray:none;stroke-opacity:1"
             id="path26" />
          <path
             d="m 2297.07,2215.09 v 159.92 -159.92 l 113.08,113.08 -113.08,-113.08 h 159.92 -159.92 l -113.08,-113.08 h 479.76"
             style="fill:none;stroke:#87ceeb;stroke-width:17.991;stroke-linecap:round;stroke-linejoin:round;stroke-miterlimit:10;stroke-dasharray:none;stroke-opacity:1"
             id="path28" />
          <path
             d="m 2663.75,2102.01 -59.37,-16.96 29.69,-12.73 12.72,-29.68 16.96,59.37"
             style="fill:#87ceeb;fill-opacity:1;fill-rule:evenodd;stroke:none"
             id="path30" />
          <path
             d="m 2663.75,2102.01 -59.37,-16.96 29.69,-12.73 12.72,-29.68 16.96,59.37"
             style="fill:none;stroke:#87ceeb;stroke-width:5.997;stroke-linecap:round;stroke-linejoin:round;stroke-miterlimit:10;stroke-dasharray:none;stroke-opacity:1"
             id="path32" />
        </g>
      </g>
    </g>
  </g>
</svg>
